<svg width="24" height="24" viewBox="0 0 24 24" fill="none" xmlns="http://www.w3.org/2000/svg">
<path fill-rule="evenodd" clip-rule="evenodd" d="M23.8 7.20059C23.8 7.20059 23.6 5.50059 22.8 4.80059C21.9 3.80059 20.9 3.80059 20.4 3.80059C17 3.60059 12 3.60059 12 3.60059C12 3.60059 7 3.60059 3.6 3.80059C3.1 3.90059 2.1 3.90059 1.2 4.80059C0.5 5.50059 0.2 7.20059 0.2 7.20059C0.2 7.20059 0 9.10059 0 11.1006V12.9006C0 14.8006 0.2 16.8006 0.2 16.8006C0.2 16.8006 0.4 18.5006 1.2 19.2006C2.1 20.2006 3.3 20.1006 3.8 20.2006C5.7 20.4006 12 20.4006 12 20.4006C12 20.4006 17 20.4006 20.4 20.1006C20.9 20.0006 21.9 20.0006 22.8 19.1006C23.5 18.4006 23.8 16.7006 23.8 16.7006C23.8 16.7006 24 14.8006 24 12.8006V11.0006C24 9.10059 23.8 7.20059 23.8 7.20059ZM9.5 15.1006V8.40059L16 11.8006L9.5 15.1006Z" fill="white"/>
</svg>
