<svg width="24" height="24" viewBox="0 0 24 24" fill="none" xmlns="http://www.w3.org/2000/svg">
<path fill-rule="evenodd" clip-rule="evenodd" d="M23 0.000976563H1C0.734784 0.000976563 0.48043 0.106333 0.292893 0.29387C0.105357 0.481406 0 0.73576 0 1.00098V23.001C0 23.2662 0.105357 23.5205 0.292893 23.7081C0.48043 23.8956 0.734784 24.001 1 24.001H23C23.2652 24.001 23.5196 23.8956 23.7071 23.7081C23.8946 23.5205 24 23.2662 24 23.001V1.00098C24 0.73576 23.8946 0.481406 23.7071 0.29387C23.5196 0.106333 23.2652 0.000976563 23 0.000976562V0.000976563ZM19.938 5.68698L18.651 6.92098C18.5966 6.96244 18.5545 7.01798 18.5293 7.08159C18.5041 7.1452 18.4967 7.21449 18.508 7.28198V16.35C18.4967 16.4175 18.5041 16.4867 18.5293 16.5504C18.5545 16.614 18.5966 16.6695 18.651 16.711L19.908 17.945V18.216H13.586V17.945L14.886 16.681C15.014 16.553 15.014 16.515 15.014 16.32V8.99098L11.393 18.191H10.904L6.691 8.99098V15.154C6.67366 15.2818 6.68562 15.4118 6.72599 15.5343C6.76636 15.6568 6.83407 15.7685 6.924 15.861L8.618 17.915V18.186H3.818V17.915L5.509 15.861C5.5982 15.7685 5.6644 15.6563 5.70227 15.5335C5.74014 15.4107 5.74861 15.2807 5.727 15.154V8.02798C5.73727 7.93061 5.72452 7.83219 5.68978 7.74065C5.65504 7.64911 5.59929 7.56701 5.527 7.50098L4.019 5.68698V5.41598H8.693L12.306 13.34L15.482 5.41598H19.938V5.68698Z" fill="white"/>
</svg>
