<svg width="24" height="24" viewBox="0 0 24 24" fill="none" xmlns="http://www.w3.org/2000/svg">
<path fill-rule="evenodd" clip-rule="evenodd" d="M24 11.8014C24 10.2014 22.7 8.90137 21.1 8.90137C20.4 8.90137 19.8 9.10137 19.3 9.50137C17.5 8.40137 15.3 7.70137 12.9 7.60137L14.1 3.70137L17.5 4.50137C17.6 5.70137 18.6 6.70137 19.9 6.70137C21.2 6.70137 22.3 5.60137 22.3 4.30137C22.3 3.00137 21.2 1.90137 19.9 1.90137C19 1.90137 18.2 2.40137 17.8 3.20137L13.8 2.30137C13.5 2.20137 13.1 2.40137 13 2.70137L11.5 7.60137C9 7.70137 6.5 8.30137 4.7 9.50137C4.2 9.10137 3.6 8.90137 2.9 8.90137C1.3 8.90137 0 10.2014 0 11.8014C0 12.8014 0.5 13.7014 1.2 14.2014C1.2 14.4014 1.2 14.7014 1.2 14.9014C1.2 16.9014 2.4 18.7014 4.5 20.1014C6.5 21.4014 9.2 22.1014 12 22.1014C14.8 22.1014 17.5 21.4014 19.5 20.1014C21.6 18.7014 22.8 16.9014 22.8 14.9014C22.8 14.7014 22.8 14.5014 22.8 14.3014C23.5 13.7014 24 12.8014 24 11.8014ZM20 3.20137C20.6 3.20137 21.1 3.70137 21.1 4.30137C21.1 4.90137 20.6 5.40137 20 5.40137C19.4 5.40137 18.9 4.90137 18.9 4.30137C18.9 3.70137 19.4 3.20137 20 3.20137ZM6.8 13.6014C6.8 12.7014 7.6 12.0014 8.4 12.0014C9.3 12.0014 10 12.8014 10 13.6014C10 14.4014 9.3 15.2014 8.4 15.2014C7.6 15.2014 6.8 14.5014 6.8 13.6014ZM16 18.3014C15.2 19.1014 13.9 19.5014 12.1 19.5014C10.3 19.5014 9 19.1014 8.2 18.3014C7.9 18.0014 7.9 17.6014 8.2 17.4014C8.5 17.1014 8.9 17.1014 9.1 17.4014C9.7 18.0014 10.7 18.3014 12.1 18.3014C13.5 18.3014 14.5 18.0014 15.1 17.4014C15.4 17.1014 15.8 17.1014 16 17.4014C16.2 17.7014 16.2 18.1014 16 18.3014ZM15.6 15.2014C14.7 15.2014 13.9 14.5014 13.9 13.6014C13.9 12.7014 14.7 12.0014 15.6 12.0014C16.5 12.0014 17.2 12.8014 17.2 13.6014C17.2 14.4014 16.5 15.2014 15.6 15.2014Z" fill="white"/>
</svg>
