<svg width="24" height="24" viewBox="0 0 24 24" fill="none" xmlns="http://www.w3.org/2000/svg">
<path fill-rule="evenodd" clip-rule="evenodd" d="M23.9532 2.52858C23.9338 2.43996 23.8913 2.35805 23.83 2.29114C23.7687 2.22424 23.6908 2.17471 23.6042 2.14758C23.2889 2.08513 22.9626 2.10826 22.6592 2.21458C22.6592 2.21458 1.63021 9.77358 0.429212 10.6106C0.171212 10.7906 0.0842119 10.8956 0.0412119 11.0186C-0.166788 11.6186 0.480212 11.8766 0.480212 11.8766L5.90021 13.6426C5.99185 13.659 6.08609 13.6535 6.17521 13.6266C7.40721 12.8476 18.5752 5.79258 19.2242 5.55558C19.3242 5.52558 19.4012 5.55558 19.3812 5.63058C19.1232 6.53558 9.47221 15.1086 9.41921 15.1606C9.39339 15.1817 9.37328 15.209 9.3607 15.2399C9.34813 15.2708 9.34349 15.3044 9.34721 15.3376L8.84121 20.6296C8.84121 20.6296 8.62921 22.2766 10.2762 20.6296C11.4442 19.4606 12.5652 18.4926 13.1252 18.0216C14.9892 19.3086 16.9942 20.7316 17.8592 21.4766C18.0047 21.6174 18.1771 21.7275 18.3661 21.8002C18.5551 21.8728 18.7569 21.9067 18.9592 21.8996C19.2084 21.8692 19.4425 21.7637 19.6302 21.597C19.818 21.4303 19.9505 21.2104 20.0102 20.9666C20.0102 20.9666 23.8402 5.54358 23.9682 3.47758C23.9812 3.27758 23.9982 3.14558 24.0002 3.00658C24.0065 2.84585 23.9906 2.68502 23.9532 2.52858Z" fill="white"/>
</svg>
