<svg width="1511" height="235" viewBox="0 0 1511 235" fill="none" xmlns="http://www.w3.org/2000/svg">
<path d="M1511 235C1511 204.139 1491.46 173.581 1453.49 145.069C1415.52 116.558 1359.87 90.6517 1289.72 68.8299C1219.56 47.0081 1136.28 29.6982 1044.62 17.8883C952.956 6.07845 854.714 -1.34896e-06 755.5 0C656.286 1.34896e-06 558.044 6.07846 466.383 17.8883C374.721 29.6982 291.435 47.0081 221.281 68.8299C151.126 90.6517 95.4764 116.558 57.509 145.069C19.5416 173.581 -8.67353e-06 204.139 0 235L755.5 235H1511Z" fill="url(#paint0_linear_38_6097)"/>
<defs>
<linearGradient id="paint0_linear_38_6097" x1="755.5" y1="0" x2="755.212" y2="235.38" gradientUnits="userSpaceOnUse">
<stop stop-color="#410078"/>
<stop offset="1" stop-color="#0B0514"/>
</linearGradient>
</defs>
</svg>
