<svg width="1511" height="235" viewBox="0 0 1511 235" fill="none" xmlns="http://www.w3.org/2000/svg">
<path d="M1511 0C1511 30.8606 1491.46 61.4191 1453.49 89.9306C1415.52 118.442 1359.87 144.348 1289.72 166.17C1219.56 187.992 1136.28 205.302 1044.62 217.112C952.956 228.922 854.714 235 755.5 235C656.286 235 558.044 228.922 466.383 217.112C374.721 205.302 291.435 187.992 221.281 166.17C151.126 144.348 95.4764 118.442 57.509 89.9306C19.5416 61.4191 -8.67353e-06 30.8606 0 -1.52588e-05L755.5 0H1511Z" fill="url(#paint0_linear_38_6098)"/>
<defs>
<linearGradient id="paint0_linear_38_6098" x1="755.5" y1="235" x2="755.212" y2="-0.37991" gradientUnits="userSpaceOnUse">
<stop stop-color="#410078"/>
<stop offset="1" stop-opacity="0"/>
</linearGradient>
</defs>
</svg>
