<svg width="97" height="97" viewBox="0 0 97 97" fill="none" xmlns="http://www.w3.org/2000/svg">
<g clip-path="url(#clip0_38_5934)">
<path d="M64.5625 48.2049C64.5597 47.5116 64.3533 46.8344 63.9689 46.2574C63.5846 45.6804 63.0392 45.229 62.4005 44.9593C61.7618 44.6895 61.0579 44.6134 60.3763 44.7403C59.6947 44.8671 59.0654 45.1914 58.5665 45.6729C56.1532 44.0849 52.8878 43.0742 49.2718 42.9449L51.2492 36.7195L56.6038 37.9742L56.5958 38.0515C56.5983 38.8182 56.905 39.5525 57.4485 40.0933C57.9919 40.634 58.7278 40.937 59.4945 40.9355C61.0918 40.9355 62.3905 39.6422 62.3905 38.0515C62.3888 37.3775 62.152 36.7251 61.7208 36.207C61.2896 35.6889 60.6911 35.3375 60.0285 35.2135C59.366 35.0895 58.6809 35.2005 58.0915 35.5276C57.5021 35.8546 57.0452 36.3771 56.7998 37.0049L51.0278 35.6515C50.9062 35.6221 50.7779 35.6401 50.669 35.7017C50.56 35.7634 50.4786 35.8641 50.4412 35.9835L48.2358 42.9262C44.4518 42.9716 41.0238 43.9902 38.5025 45.6262C37.8517 45.018 36.9946 44.6788 36.1038 44.6769C35.1667 44.6762 34.2676 45.0472 33.6037 45.7086C32.9398 46.37 32.5653 47.2678 32.5625 48.2049C32.5625 49.4982 33.2732 50.6196 34.3185 51.2329C34.2455 51.6095 34.2071 51.992 34.2038 52.3756C34.2038 57.5902 40.6145 61.8329 48.4958 61.8329C56.3772 61.8329 62.7892 57.5902 62.7892 52.3756C62.7892 52.0102 62.7505 51.6502 62.6892 51.2956C63.2523 50.9987 63.7241 50.5542 64.0541 50.0098C64.3841 49.4654 64.5598 48.8415 64.5625 48.2049ZM41.5972 50.6262C41.5972 49.4689 42.5438 48.5262 43.7065 48.5262C44.8692 48.5262 45.8145 49.4689 45.8145 50.6262C45.8145 51.7836 44.8692 52.7249 43.7065 52.7249C42.5438 52.7249 41.5972 51.7836 41.5972 50.6262ZM53.6785 56.8516C52.6158 57.9089 50.9478 58.4236 48.5798 58.4236L48.5625 58.4196L48.5452 58.4236C46.1758 58.4236 44.5078 57.9089 43.4465 56.8516C43.4006 56.8058 43.3641 56.7515 43.3393 56.6917C43.3144 56.6318 43.3016 56.5677 43.3016 56.5029C43.3016 56.4381 43.3144 56.3739 43.3393 56.3141C43.3641 56.2543 43.4006 56.1999 43.4465 56.1542C43.5395 56.0612 43.6656 56.009 43.7972 56.009C43.9287 56.009 44.0548 56.0612 44.1478 56.1542C45.0145 57.0169 46.4532 57.4356 48.5452 57.4356L48.5625 57.4396L48.5798 57.4356C50.6718 57.4356 52.1105 57.0156 52.9772 56.1529C53.0704 56.0602 53.1964 56.0082 53.3278 56.0082C53.4592 56.0082 53.5853 56.0602 53.6785 56.1529C53.7245 56.1987 53.7609 56.2532 53.7858 56.3131C53.8107 56.3731 53.8235 56.4373 53.8235 56.5022C53.8235 56.5671 53.8107 56.6314 53.7858 56.6913C53.7609 56.7513 53.7245 56.8057 53.6785 56.8516ZM53.4265 52.7249C52.8689 52.7253 52.334 52.5046 51.9388 52.1112C51.5437 51.7178 51.3206 51.1838 51.3185 50.6262C51.3185 49.4689 52.2638 48.5262 53.4265 48.5262C54.5892 48.5262 55.5345 49.4689 55.5345 50.6262C55.5345 51.7836 54.5892 52.7249 53.4265 52.7249Z" fill="white"/>
</g>
<rect x="2.5625" y="2.5" width="92" height="92" rx="46" stroke="#342540" stroke-width="4"/>
<defs>
<clipPath id="clip0_38_5934">
<rect width="32" height="32" fill="white" transform="translate(32.5625 32.5)"/>
</clipPath>
</defs>
</svg>
