<svg width="97" height="97" viewBox="0 0 97 97" fill="none" xmlns="http://www.w3.org/2000/svg">
<g clip-path="url(#clip0_38_5970)">
<path d="M48.2812 32.8975C39.4412 32.8975 32.2812 40.0615 32.2812 48.8975C32.2812 55.9681 36.8652 61.9641 43.2212 64.0775C44.0212 64.2281 44.3146 63.7335 44.3146 63.3081C44.3146 62.9281 44.3012 61.9215 44.2945 60.5881C39.8439 61.5535 38.9053 58.4415 38.9053 58.4415C38.1772 56.5948 37.1252 56.1015 37.1252 56.1015C35.6759 55.1095 37.2372 55.1295 37.2372 55.1295C38.8439 55.2415 39.6879 56.7775 39.6879 56.7775C41.1146 59.2241 43.4333 58.5175 44.3479 58.1081C44.492 57.0735 44.9039 56.3681 45.3612 55.9681C41.8079 55.5681 38.0732 54.1921 38.0732 48.0615C38.0732 46.3148 38.6933 44.8881 39.7199 43.7681C39.5399 43.3641 38.9999 41.7375 39.8599 39.5335C39.8599 39.5335 41.1999 39.1041 44.2599 41.1735C45.5399 40.8175 46.9 40.6415 48.2599 40.6335C49.6199 40.6415 50.9799 40.8175 52.26 41.1735C55.2999 39.1041 56.6399 39.5335 56.6399 39.5335C57.5 41.7375 56.9599 43.3641 56.7999 43.7681C57.82 44.8881 58.44 46.3148 58.44 48.0615C58.44 54.2081 54.6999 55.5615 51.1399 55.9548C51.6999 56.4348 52.2199 57.4161 52.2199 58.9148C52.2199 61.0561 52.1999 62.7761 52.1999 63.2961C52.1999 63.7161 52.4799 64.2161 53.2999 64.0561C59.7013 61.9575 64.2812 55.9575 64.2812 48.8975C64.2812 40.0615 57.1173 32.8975 48.2812 32.8975Z" fill="white"/>
</g>
<rect x="2.28125" y="2.5" width="92" height="92" rx="46" stroke="#342540" stroke-width="4"/>
<defs>
<clipPath id="clip0_38_5970">
<rect width="32" height="32" fill="white" transform="translate(32.2812 32.5)"/>
</clipPath>
</defs>
</svg>
