<svg width="97" height="97" viewBox="0 0 97 97" fill="none" xmlns="http://www.w3.org/2000/svg">
<g clip-path="url(#clip0_38_5940)">
<mask id="mask0_38_5940" style="mask-type:luminance" maskUnits="userSpaceOnUse" x="32" y="32" width="33" height="33">
<path d="M32.9844 32.5H64.9844V64.5H32.9844V32.5Z" fill="white"/>
</mask>
<g mask="url(#mask0_38_5940)">
<path fill-rule="evenodd" clip-rule="evenodd" d="M57.4963 62.8724C57.7078 63.0229 57.9529 63.1192 58.2103 63.1529C58.4676 63.1866 58.7293 63.1567 58.9723 63.0657C59.214 62.9745 59.4289 62.8242 59.5975 62.6285C59.7661 62.4329 59.8831 62.1982 59.9377 61.9457C61.0963 56.5004 63.907 42.7177 64.9617 37.7644C65.0007 37.5803 64.9891 37.3891 64.9281 37.2111C64.867 37.0331 64.7588 36.875 64.615 36.7537C64.4705 36.6309 64.2958 36.5489 64.109 36.5161C63.9222 36.4833 63.7301 36.5009 63.5523 36.567C57.9617 38.6364 40.7443 45.0964 33.707 47.7004C33.4901 47.7799 33.3037 47.9255 33.174 48.1166C33.0444 48.3078 32.978 48.5348 32.9843 48.7657C33.0003 49.2377 33.3176 49.6471 33.775 49.7844C36.931 50.7284 41.0736 52.0417 41.0736 52.0417C41.0736 52.0417 43.0097 57.8884 44.019 60.8617C44.1457 61.2351 44.4377 61.5284 44.823 61.6297C45.0119 61.6788 45.2101 61.6793 45.3992 61.631C45.5883 61.5828 45.7621 61.4874 45.9043 61.3537L50.0323 57.4564C50.0323 57.4564 54.795 60.9484 57.4963 62.8724ZM42.8163 51.3031L45.055 58.6871L45.5523 54.0111L59.1323 41.763C59.2021 41.7004 59.2454 41.6137 59.2536 41.5204C59.2617 41.427 59.2341 41.3341 59.1763 41.2604C59.1183 41.1864 59.0348 41.1368 58.9421 41.121C58.8495 41.1052 58.7543 41.1245 58.675 41.175L42.8163 51.3031Z" fill="white"/>
</g>
</g>
<rect x="2.98438" y="2.5" width="92" height="92" rx="46" stroke="#342540" stroke-width="4"/>
<defs>
<clipPath id="clip0_38_5940">
<rect width="32" height="32" fill="white" transform="translate(32.9844 32.5)"/>
</clipPath>
</defs>
</svg>
