<svg width="97" height="97" viewBox="0 0 97 97" fill="none" xmlns="http://www.w3.org/2000/svg">
<g clip-path="url(#clip0_38_5950)">
<mask id="mask0_38_5950" style="mask-type:luminance" maskUnits="userSpaceOnUse" x="32" y="32" width="33" height="33">
<path d="M32.4219 32.5H64.4219V64.5H32.4219V32.5Z" fill="white"/>
</mask>
<g mask="url(#mask0_38_5950)">
<path fill-rule="evenodd" clip-rule="evenodd" d="M58.4752 32.5C58.907 32.501 59.3343 32.5871 59.7328 32.7533C60.1314 32.9196 60.4932 33.1626 60.7978 33.4687C61.1024 33.7747 61.3437 34.1378 61.508 34.5371C61.6722 34.9365 61.7562 35.3642 61.7552 35.796V64.5L58.3152 61.46L56.3792 59.668L54.3312 57.764L55.1792 60.724H37.0351C36.6034 60.7229 36.176 60.6369 35.7775 60.4707C35.379 60.3045 35.0171 60.0614 34.7125 59.7553C34.4079 59.4493 34.1666 59.0862 34.0024 58.6869C33.8381 58.2876 33.7541 57.8598 33.7551 57.428V35.796C33.7541 35.3642 33.8381 34.9365 34.0024 34.5371C34.1666 34.1378 34.4079 33.7747 34.7125 33.4687C35.0171 33.1626 35.379 32.9196 35.7775 32.7533C36.176 32.5871 36.6034 32.501 37.0351 32.5H58.4752ZM52.2992 53.396C55.8352 53.284 57.1952 50.964 57.1952 50.964C57.1952 45.812 54.8912 41.636 54.8912 41.636C52.5872 39.908 50.3952 39.956 50.3952 39.956L50.1712 40.212C52.8912 41.044 54.1552 42.244 54.1552 42.244C51.7035 40.8918 48.8817 40.3645 46.1072 40.74L45.8352 40.772C45.2752 40.82 43.9152 41.028 42.2031 41.78C41.6111 42.052 41.2591 42.244 41.2591 42.244C41.2591 42.244 42.5872 40.98 45.4672 40.148L45.3072 39.956C45.3072 39.956 43.1152 39.908 40.8111 41.636C40.8111 41.636 38.5071 45.812 38.5071 50.964C38.5071 50.964 39.8511 53.284 43.3872 53.396C43.3872 53.396 43.9792 52.676 44.4592 52.068C42.4272 51.46 41.6591 50.18 41.6591 50.18L42.1071 50.452L42.1711 50.5L42.2338 50.536L42.2525 50.544L42.3151 50.58C42.7152 50.804 43.1152 50.98 43.4832 51.124C44.1392 51.38 44.9232 51.636 45.8352 51.812C47.0352 52.036 48.4432 52.116 49.9792 51.828C50.7764 51.6886 51.5549 51.4577 52.2992 51.14C52.8592 50.932 53.4832 50.628 54.1392 50.196C54.1392 50.196 53.3392 51.508 51.2432 52.1C51.7232 52.708 52.2992 53.396 52.2992 53.396ZM44.8592 45.924C43.9472 45.924 43.2272 46.724 43.2272 47.7C43.2272 48.676 43.9632 49.476 44.8592 49.476C45.7712 49.476 46.4912 48.676 46.4912 47.7C46.5072 46.724 45.7712 45.924 44.8592 45.924ZM50.6992 45.924C49.7872 45.924 49.0672 46.724 49.0672 47.7C49.0672 48.676 49.8032 49.476 50.6992 49.476C51.6112 49.476 52.3312 48.676 52.3312 47.7C52.3312 46.724 51.6112 45.924 50.6992 45.924Z" fill="white"/>
</g>
</g>
<rect x="2.42188" y="2.5" width="92" height="92" rx="46" stroke="#342540" stroke-width="4"/>
<defs>
<clipPath id="clip0_38_5950">
<rect width="32" height="32" fill="white" transform="translate(32.4219 32.5)"/>
</clipPath>
</defs>
</svg>
