<svg width="97" height="97" viewBox="0 0 97 97" fill="none" xmlns="http://www.w3.org/2000/svg">
<g clip-path="url(#clip0_38_5924)">
<mask id="mask0_38_5924" style="mask-type:luminance" maskUnits="userSpaceOnUse" x="32" y="32" width="33" height="33">
<path d="M32.125 32.5H64.125V64.5H32.125V32.5Z" fill="white"/>
</mask>
<g mask="url(#mask0_38_5924)">
<path d="M64.125 38.5757C62.9268 39.1068 61.6558 39.4551 60.3543 39.6091C61.7259 38.7893 62.752 37.4982 63.241 35.9771C61.9522 36.7419 60.5421 37.2807 59.0717 37.5704C58.4576 36.9149 57.7154 36.3927 56.891 36.036C56.0667 35.6793 55.1778 35.4959 54.2797 35.4971C50.041 35.4971 46.9263 39.4517 47.8837 43.5571C45.2735 43.4265 42.72 42.7483 40.389 41.5667C38.0579 40.3851 36.0014 38.7264 34.353 36.6984C33.5136 38.1438 33.2564 39.8546 33.6336 41.4829C34.0109 43.1113 34.9942 44.5347 36.3837 45.4638C35.3417 45.4309 34.3227 45.1493 33.4117 44.6425C33.3397 47.6838 35.5197 50.5291 38.677 51.1625C37.71 51.4251 36.6957 51.4634 35.7117 51.2745C36.131 52.579 36.9477 53.7197 38.0475 54.5371C39.1472 55.3545 40.475 55.8077 41.845 55.8331C39.0933 57.9916 35.5974 58.9699 32.125 58.5531C35.127 60.4819 38.6208 61.5058 42.189 61.5025C54.3783 61.5025 61.265 51.2078 60.849 41.9744C62.134 41.0448 63.2433 39.894 64.125 38.5757Z" fill="white"/>
</g>
</g>
<rect x="2.125" y="2.5" width="92" height="92" rx="46" stroke="#342540" stroke-width="4"/>
<defs>
<clipPath id="clip0_38_5924">
<rect width="32" height="32" fill="white" transform="translate(32.125 32.5)"/>
</clipPath>
</defs>
</svg>
