<svg width="97" height="97" viewBox="0 0 97 97" fill="none" xmlns="http://www.w3.org/2000/svg">
<g clip-path="url(#clip0_38_5960)">
<mask id="mask0_38_5960" style="mask-type:luminance" maskUnits="userSpaceOnUse" x="32" y="32" width="33" height="33">
<path d="M32.8438 32.5H64.8438V64.5H32.8438V32.5Z" fill="white"/>
</mask>
<g mask="url(#mask0_38_5960)">
<path fill-rule="evenodd" clip-rule="evenodd" d="M52.7542 42.3193L42.8324 52.1718C42.7045 51.9253 42.589 51.6685 42.4855 51.402C42.139 50.5068 41.9657 49.5571 41.9657 48.5539C41.9657 47.55 42.139 46.6007 42.4855 45.7054C42.8324 44.8098 43.3128 44.0329 43.9272 43.3734C44.5416 42.7144 45.28 42.1931 46.1418 41.8092C47.0041 41.4257 47.9501 41.2338 48.9804 41.2338C50.0111 41.2338 50.9622 41.4305 51.8337 41.8244C52.1577 41.9705 52.4646 42.1354 52.7542 42.3193ZM51.8787 55.3572C51.0165 55.7411 50.0704 55.9326 49.0401 55.9326C48.0095 55.9326 47.0581 55.7359 46.1862 55.3425C45.8626 55.1959 45.5559 55.031 45.2668 54.8467L55.188 44.995C55.3159 45.2411 55.4314 45.4976 55.535 45.7644C55.8815 46.6596 56.0546 47.6093 56.0546 48.6129C56.0546 49.6164 55.8815 50.5658 55.535 51.4614C55.188 52.3566 54.7077 53.1335 54.0933 53.7926C53.4788 54.4516 52.741 54.9733 51.8787 55.3572ZM53.3797 58.412C54.7076 57.8413 55.857 57.0692 56.8279 56.0947C57.7989 55.1211 58.5515 53.9845 59.0865 52.6859C59.622 51.3873 59.8895 50.0099 59.8895 48.5539C59.8895 47.0976 59.622 45.7202 59.0865 44.4212C58.7694 43.651 58.3787 42.9398 57.9151 42.2871L64.3682 35.8793L61.8039 33.333L55.3312 39.7603C54.75 39.3669 54.1193 39.0268 53.4391 38.7397C52.1112 38.179 50.6451 37.8983 49.0401 37.8983C47.4348 37.8983 45.9685 38.1838 44.6406 38.7544C43.3128 39.3251 42.1635 40.0972 41.1925 41.0713C40.2216 42.0454 39.4685 43.1819 38.9335 44.4805C38.3985 45.7791 38.131 47.1566 38.131 48.6129C38.131 50.0688 38.3985 51.4458 38.9335 52.7449C39.2511 53.5154 39.6417 54.2266 40.1053 54.8797L33.6526 61.2868L36.2168 63.833L42.6892 57.4061C43.2704 57.7995 43.9012 58.1396 44.5814 58.4267C45.9092 58.9874 47.3754 59.2678 48.9804 59.2678C50.5857 59.2678 52.0519 58.9822 53.3797 58.412Z" fill="white"/>
</g>
</g>
<rect x="2.84375" y="2.5" width="92" height="92" rx="46" stroke="#342540" stroke-width="4"/>
<defs>
<clipPath id="clip0_38_5960">
<rect width="32" height="32" fill="white" transform="translate(32.8438 32.5)"/>
</clipPath>
</defs>
</svg>
