<svg width="21" height="21" viewBox="0 0 21 21" fill="none" xmlns="http://www.w3.org/2000/svg">
<g clip-path="url(#clip0_38_5440)">
<path fill-rule="evenodd" clip-rule="evenodd" d="M6.17 0.5H14.84C18.23 0.5 20.5 2.88 20.5 6.42V14.591C20.5 18.12 18.23 20.5 14.84 20.5H6.17C2.78 20.5 0.5 18.12 0.5 14.591V6.42C0.5 2.88 2.78 0.5 6.17 0.5ZM9.93 13.49L14.68 8.74C15.02 8.4 15.02 7.85 14.68 7.5C14.34 7.16 13.78 7.16 13.44 7.5L9.31 11.63L7.56 9.88C7.22 9.54 6.66 9.54 6.32 9.88C5.98 10.22 5.98 10.77 6.32 11.12L8.7 13.49C8.87 13.66 9.09 13.74 9.31 13.74C9.54 13.74 9.76 13.66 9.93 13.49Z" fill="white"/>
</g>
<defs>
<clipPath id="clip0_38_5440">
<rect width="20" height="20" fill="white" transform="translate(0.5 0.5)"/>
</clipPath>
</defs>
</svg>
