<svg width="508" height="312" viewBox="0 0 508 312" fill="none" xmlns="http://www.w3.org/2000/svg">
<g opacity="0.23">
<path opacity="0.03846" d="M332.596 244.183C332.619 229.004 304.631 216.654 270.082 216.599C235.533 216.544 207.507 228.804 207.483 243.983C207.46 259.162 235.448 271.511 269.997 271.567C304.546 271.622 332.572 259.361 332.596 244.183Z" fill="#4A0101"/>
<path opacity="0.07692" d="M330.716 244.18C330.738 229.457 303.592 217.479 270.081 217.426C236.571 217.372 209.387 229.264 209.364 243.986C209.341 258.709 236.488 270.687 269.999 270.74C303.509 270.794 330.693 258.902 330.716 244.18Z" fill="#480202"/>
<path opacity="0.11539" d="M328.835 244.177C328.857 229.91 302.552 218.303 270.08 218.252C237.608 218.2 211.267 229.723 211.245 243.989C211.223 258.255 237.528 269.862 270 269.914C302.472 269.966 328.813 258.443 328.835 244.177Z" fill="#460303"/>
<path opacity="0.15385" d="M326.955 244.174C326.977 230.364 301.512 219.128 270.079 219.078C238.646 219.028 213.148 230.182 213.126 243.992C213.105 257.802 238.569 269.038 270.002 269.088C301.435 269.138 326.934 257.983 326.955 244.174Z" fill="#440404"/>
<path opacity="0.19231" d="M325.075 244.171C325.095 230.817 300.472 219.953 270.078 219.904C239.684 219.856 215.027 230.642 215.007 243.995C214.986 257.349 239.609 268.213 270.003 268.262C300.398 268.31 325.054 257.524 325.075 244.171Z" fill="#420505"/>
<path opacity="0.23077" d="M323.194 244.168C323.214 231.27 299.433 220.777 270.077 220.73C240.722 220.684 216.908 231.101 216.888 243.998C216.868 256.895 240.649 267.389 270.005 267.435C299.361 267.482 323.174 257.065 323.194 244.168Z" fill="#400606"/>
<path opacity="0.26923" d="M321.314 244.165C321.334 231.724 298.394 221.602 270.076 221.557C241.759 221.511 218.788 231.56 218.769 244.001C218.75 256.442 241.689 266.564 270.007 266.609C298.324 266.654 321.295 256.606 321.314 244.165Z" fill="#3E0606"/>
<path opacity="0.30769" d="M319.434 244.161C319.452 232.176 297.354 222.425 270.075 222.382C242.797 222.338 220.668 232.019 220.65 244.003C220.631 255.988 242.73 265.738 270.008 265.782C297.287 265.825 319.415 256.145 319.434 244.161Z" fill="#3C0707"/>
<path opacity="0.34615" d="M317.553 244.159C317.571 232.63 296.314 223.251 270.074 223.209C243.834 223.167 222.548 232.479 222.53 244.007C222.512 255.535 243.769 264.915 270.009 264.957C296.249 264.998 317.535 255.687 317.553 244.159Z" fill="#3A0808"/>
<path opacity="0.38461" d="M315.673 244.155C315.69 233.083 295.274 224.075 270.073 224.034C244.872 223.994 224.428 232.937 224.411 244.009C224.394 255.081 244.81 264.089 270.011 264.129C295.212 264.17 315.656 255.227 315.673 244.155Z" fill="#380909"/>
<path opacity="0.42308" d="M313.793 244.152C313.81 233.536 294.235 224.899 270.073 224.861C245.91 224.822 226.309 233.396 226.293 244.012C226.276 254.628 245.85 263.265 270.013 263.303C294.176 263.342 313.777 254.767 313.793 244.152Z" fill="#360A0A"/>
<path opacity="0.46154" d="M311.912 244.149C311.928 233.989 293.195 225.724 270.071 225.687C246.947 225.65 228.189 233.856 228.173 244.015C228.157 254.174 246.89 262.44 270.014 262.477C293.138 262.514 311.897 254.308 311.912 244.149Z" fill="#340B0B"/>
<path opacity="0.5" d="M310.032 244.145C310.047 234.442 292.156 226.547 270.071 226.512C247.985 226.477 230.069 234.314 230.054 244.017C230.039 253.72 247.931 261.615 270.016 261.65C292.101 261.685 310.017 253.848 310.032 244.145Z" fill="#330C0C"/>
<path opacity="0.53846" d="M308.152 244.143C308.166 234.896 291.116 227.373 270.069 227.339C249.023 227.306 231.949 234.774 231.935 244.021C231.921 253.268 248.971 260.791 270.017 260.825C291.064 260.858 308.138 253.389 308.152 244.143Z" fill="#310D0D"/>
<path opacity="0.57692" d="M306.271 244.136C306.284 235.346 290.076 228.194 270.068 228.162C250.059 228.13 233.829 235.231 233.815 244.021C233.801 252.811 250.01 259.963 270.018 259.995C290.026 260.027 306.257 252.927 306.271 244.136Z" fill="#2F0E0E"/>
<path opacity="0.61538" d="M304.391 244.137C304.404 235.803 289.037 229.022 270.067 228.992C251.098 228.961 235.709 235.693 235.697 244.027C235.684 252.361 251.051 259.142 270.02 259.172C288.99 259.202 304.378 252.471 304.391 244.137Z" fill="#2D0F0F"/>
<path opacity="0.65385" d="M302.511 244.133C302.523 236.255 287.997 229.845 270.066 229.817C252.136 229.788 237.59 236.151 237.578 244.029C237.565 251.907 252.091 258.316 270.022 258.345C287.953 258.373 302.499 252.01 302.511 244.133Z" fill="#2B1010"/>
<path opacity="0.69231" d="M300.631 244.129C300.643 236.707 286.958 230.669 270.066 230.642C253.174 230.615 239.47 236.609 239.459 244.031C239.447 251.452 253.132 257.491 270.024 257.518C286.916 257.545 300.62 251.55 300.631 244.129Z" fill="#291111"/>
<path opacity="0.73077" d="M298.75 244.127C298.761 237.162 285.918 231.495 270.065 231.469C254.211 231.444 241.35 237.07 241.339 244.035C241.329 251 254.172 256.667 270.025 256.692C285.879 256.718 298.74 251.092 298.75 244.127Z" fill="#271212"/>
<path opacity="0.76923" d="M296.87 244.123C296.88 237.614 284.879 232.318 270.064 232.294C255.249 232.271 243.231 237.528 243.22 244.037C243.21 250.546 255.212 255.841 270.027 255.865C284.842 255.889 296.86 250.632 296.87 244.123Z" fill="#251212"/>
<path opacity="0.80769" d="M294.99 244.12C294.999 238.067 283.839 233.143 270.063 233.121C256.286 233.099 245.111 237.987 245.101 244.04C245.092 250.092 256.252 255.017 270.029 255.039C283.805 255.061 294.981 250.172 294.99 244.12Z" fill="#231313"/>
<path opacity="0.84615" d="M293.11 244.117C293.118 238.521 282.8 233.967 270.062 233.947C257.324 233.927 246.991 238.447 246.982 244.043C246.974 249.639 257.293 254.192 270.03 254.213C282.768 254.233 293.101 249.713 293.11 244.117Z" fill="#211414"/>
<path opacity="0.88461" d="M291.23 244.114C291.238 238.974 281.76 234.792 270.061 234.773C258.362 234.754 248.871 238.906 248.863 244.046C248.855 249.186 258.333 253.368 270.032 253.386C281.731 253.405 291.222 249.254 291.23 244.114Z" fill="#1F1515"/>
<path opacity="0.92308" d="M289.348 244.111C289.356 239.427 280.72 235.617 270.059 235.599C259.399 235.582 250.751 239.365 250.743 244.049C250.736 248.732 259.372 252.543 270.033 252.56C280.693 252.577 289.341 248.794 289.348 244.111Z" fill="#1D1616"/>
<path opacity="0.96154" d="M287.469 244.107C287.475 239.88 279.68 236.44 270.059 236.425C260.437 236.409 252.631 239.824 252.625 244.051C252.618 248.278 260.413 251.718 270.035 251.733C279.657 251.748 287.462 248.334 287.469 244.107Z" fill="#1B1717"/>
<path d="M285.587 244.103C285.593 240.332 278.64 237.264 270.057 237.25C261.474 237.236 254.511 240.282 254.505 244.053C254.499 247.824 261.452 250.892 270.035 250.906C278.619 250.92 285.582 247.874 285.587 244.103Z" fill="#191818"/>
</g>
<g opacity="0.23">
<path opacity="0.03846" d="M225.024 282.696C225.048 267.517 197.059 255.168 162.51 255.113C127.961 255.058 99.935 267.318 99.9115 282.497C99.888 297.676 127.876 310.025 162.425 310.08C196.974 310.135 225.001 297.875 225.024 282.696Z" fill="#4A0101"/>
<path opacity="0.07692" d="M223.144 282.692C223.167 267.97 196.02 255.992 162.51 255.938C128.999 255.885 101.815 267.776 101.793 282.499C101.77 297.221 128.917 309.2 162.427 309.253C195.937 309.306 223.121 297.415 223.144 282.692Z" fill="#480202"/>
<path opacity="0.11539" d="M221.264 282.69C221.286 268.424 194.98 256.817 162.509 256.765C130.037 256.714 103.696 268.237 103.674 282.503C103.651 296.769 129.957 308.376 162.429 308.428C194.9 308.479 221.242 296.956 221.264 282.69Z" fill="#460303"/>
<path opacity="0.15385" d="M219.384 282.686C219.405 268.876 193.941 257.641 162.508 257.591C131.075 257.541 105.576 268.695 105.555 282.505C105.533 296.315 130.998 307.55 162.431 307.6C193.864 307.651 219.362 296.496 219.384 282.686Z" fill="#440404"/>
<path opacity="0.19231" d="M217.503 282.683C217.523 269.33 192.901 258.465 162.506 258.417C132.112 258.368 107.456 269.154 107.435 282.508C107.414 295.861 132.037 306.726 162.431 306.774C192.826 306.823 217.482 296.037 217.503 282.683Z" fill="#420505"/>
<path opacity="0.23077" d="M215.623 282.68C215.643 269.783 191.861 259.29 162.505 259.243C133.15 259.196 109.336 269.614 109.316 282.511C109.296 295.408 133.077 305.901 162.433 305.948C191.789 305.995 215.603 295.578 215.623 282.68Z" fill="#400606"/>
<path opacity="0.26923" d="M213.742 282.677C213.762 270.236 190.822 260.115 162.505 260.069C134.188 260.024 111.216 270.073 111.197 282.514C111.178 294.955 134.118 305.077 162.435 305.122C190.752 305.167 213.723 295.118 213.742 282.677Z" fill="#3E0606"/>
<path opacity="0.30769" d="M211.862 282.674C211.881 270.69 189.782 260.939 162.504 260.896C135.225 260.852 113.096 270.532 113.078 282.517C113.059 294.501 135.158 304.252 162.436 304.296C189.715 304.339 211.843 294.659 211.862 282.674Z" fill="#3C0707"/>
<path opacity="0.34615" d="M209.981 282.671C209.999 271.143 188.742 261.764 162.502 261.722C136.262 261.68 114.976 270.991 114.958 282.52C114.94 294.048 136.197 303.427 162.437 303.469C188.677 303.511 209.963 294.2 209.981 282.671Z" fill="#3A0808"/>
<path opacity="0.38461" d="M208.101 282.668C208.118 271.596 187.703 262.588 162.501 262.548C137.3 262.508 116.857 271.451 116.839 282.523C116.822 293.595 137.238 302.603 162.439 302.643C187.641 302.683 208.084 293.74 208.101 282.668Z" fill="#380909"/>
<path opacity="0.42308" d="M206.221 282.665C206.237 272.05 186.663 263.413 162.5 263.374C138.338 263.336 118.737 271.91 118.72 282.526C118.704 293.141 138.278 301.778 162.441 301.817C186.603 301.855 206.204 293.281 206.221 282.665Z" fill="#360A0A"/>
<path opacity="0.46154" d="M204.341 282.662C204.356 272.503 185.624 264.237 162.5 264.2C139.376 264.164 120.617 272.369 120.601 282.529C120.586 292.688 139.318 300.954 162.442 300.991C185.566 301.028 204.325 292.822 204.341 282.662Z" fill="#340B0B"/>
<path opacity="0.5" d="M202.461 282.658C202.476 272.955 184.584 265.061 162.499 265.026C140.413 264.99 122.497 272.828 122.482 282.531C122.467 292.234 140.359 300.128 162.444 300.163C184.53 300.199 202.446 292.361 202.461 282.658Z" fill="#330C0C"/>
<path opacity="0.53846" d="M200.58 282.655C200.595 273.409 183.545 265.885 162.498 265.852C141.451 265.818 124.378 273.287 124.363 282.534C124.349 291.78 141.399 299.304 162.446 299.337C183.493 299.371 200.566 291.902 200.58 282.655Z" fill="#310D0D"/>
<path opacity="0.57692" d="M198.7 282.652C198.714 273.862 182.505 266.71 162.497 266.678C142.489 266.646 126.258 273.746 126.244 282.537C126.231 291.327 142.439 298.479 162.447 298.511C182.456 298.543 198.686 291.443 198.7 282.652Z" fill="#2F0E0E"/>
<path opacity="0.61538" d="M196.819 282.649C196.832 274.315 181.465 267.535 162.495 267.504C143.526 267.474 128.138 274.206 128.125 282.54C128.112 290.874 143.479 297.654 162.449 297.685C181.418 297.715 196.806 290.983 196.819 282.649Z" fill="#2D0F0F"/>
<path opacity="0.65385" d="M194.939 282.646C194.951 274.769 180.426 268.359 162.495 268.331C144.564 268.302 130.018 274.665 130.006 282.543C129.994 290.42 144.519 296.83 162.45 296.859C180.381 296.887 194.927 290.524 194.939 282.646Z" fill="#2B1010"/>
<path opacity="0.69231" d="M193.059 282.642C193.071 275.221 179.386 269.183 162.494 269.156C145.602 269.129 131.899 275.123 131.887 282.545C131.876 289.966 145.56 296.004 162.452 296.031C179.345 296.058 193.048 290.064 193.059 282.642Z" fill="#291111"/>
<path opacity="0.73077" d="M191.179 282.64C191.19 275.675 178.346 270.008 162.493 269.983C146.639 269.958 133.778 275.583 133.768 282.549C133.757 289.514 146.6 295.181 162.454 295.206C178.307 295.231 191.168 289.606 191.179 282.64Z" fill="#271212"/>
<path opacity="0.76923" d="M189.299 282.637C189.309 276.128 177.308 270.832 162.493 270.808C147.678 270.785 135.659 276.042 135.649 282.551C135.639 289.059 147.641 294.355 162.456 294.379C177.271 294.403 189.289 289.145 189.299 282.637Z" fill="#251212"/>
<path opacity="0.80769" d="M187.417 282.632C187.427 276.58 176.266 271.655 162.49 271.633C148.714 271.611 137.538 276.5 137.529 282.553C137.519 288.605 148.68 293.53 162.456 293.552C176.232 293.574 187.408 288.685 187.417 282.632Z" fill="#231313"/>
<path opacity="0.84615" d="M185.538 282.63C185.546 277.034 175.227 272.481 162.49 272.461C149.752 272.44 139.419 276.96 139.41 282.557C139.401 288.153 149.72 292.706 162.458 292.726C175.196 292.747 185.529 288.227 185.538 282.63Z" fill="#211414"/>
<path opacity="0.88461" d="M183.657 282.626C183.665 277.487 174.188 273.305 162.489 273.286C150.79 273.267 141.299 277.419 141.291 282.559C141.283 287.699 150.761 291.88 162.46 291.899C174.159 291.918 183.649 287.766 183.657 282.626Z" fill="#1F1515"/>
<path opacity="0.92308" d="M181.777 282.624C181.784 277.941 173.148 274.13 162.488 274.113C151.827 274.096 143.179 277.879 143.172 282.563C143.165 287.246 151.801 291.057 162.461 291.074C173.122 291.091 181.77 287.308 181.777 282.624Z" fill="#1D1616"/>
<path opacity="0.96154" d="M179.897 282.62C179.904 278.393 172.109 274.954 162.487 274.938C152.865 274.923 145.06 278.337 145.053 282.565C145.047 286.792 152.842 290.231 162.463 290.247C172.085 290.262 179.891 286.848 179.897 282.62Z" fill="#1B1717"/>
<path d="M178.017 282.617C178.023 278.847 171.069 275.778 162.486 275.765C153.903 275.751 146.94 278.797 146.934 282.568C146.928 286.339 153.881 289.407 162.465 289.42C171.048 289.434 178.011 286.388 178.017 282.617Z" fill="#191818"/>
</g>
<g opacity="0.23">
<path opacity="0.03846" d="M225.332 211.399C225.356 196.221 197.367 183.871 162.818 183.816C128.27 183.761 100.243 196.021 100.22 211.2C100.196 226.379 128.184 238.728 162.733 238.783C197.282 238.838 225.309 226.578 225.332 211.399Z" fill="#4A0101"/>
<path opacity="0.07692" d="M223.452 211.395C223.475 196.673 196.328 184.695 162.818 184.641C129.307 184.588 102.123 196.48 102.101 211.202C102.078 225.924 129.225 237.903 162.735 237.956C196.245 238.009 223.429 226.118 223.452 211.395Z" fill="#480202"/>
<path opacity="0.11539" d="M221.571 211.392C221.593 197.126 195.288 185.519 162.816 185.468C130.345 185.416 104.003 196.939 103.981 211.205C103.959 225.471 130.265 237.078 162.736 237.13C195.208 237.182 221.549 225.659 221.571 211.392Z" fill="#460303"/>
<path opacity="0.15385" d="M219.691 211.389C219.712 197.58 194.248 186.344 162.815 186.294C131.382 186.244 105.883 197.398 105.862 211.208C105.841 225.018 131.305 236.254 162.738 236.304C194.171 236.354 219.67 225.199 219.691 211.389Z" fill="#440404"/>
<path opacity="0.19231" d="M217.811 211.385C217.832 198.032 193.209 187.168 162.814 187.119C132.42 187.071 107.764 197.856 107.743 211.21C107.722 224.564 132.345 235.428 162.739 235.476C193.134 235.525 217.79 224.739 217.811 211.385Z" fill="#420505"/>
<path opacity="0.23077" d="M215.931 211.383C215.951 198.486 192.169 187.993 162.814 187.946C133.458 187.899 109.644 198.317 109.624 211.214C109.604 224.111 133.385 234.604 162.741 234.651C192.097 234.698 215.911 224.281 215.931 211.383Z" fill="#400606"/>
<path opacity="0.26923" d="M214.051 211.379C214.07 198.939 191.13 188.817 162.813 188.771C134.496 188.726 111.525 198.775 111.505 211.216C111.486 223.657 134.426 233.779 162.743 233.824C191.06 233.869 214.032 223.82 214.051 211.379Z" fill="#3E0606"/>
<path opacity="0.30769" d="M212.17 211.376C212.189 199.392 190.09 189.641 162.812 189.598C135.533 189.554 113.405 199.234 113.386 211.219C113.367 223.204 135.466 232.954 162.744 232.998C190.023 233.041 212.152 223.361 212.17 211.376Z" fill="#3C0707"/>
<path opacity="0.34615" d="M210.29 211.373C210.307 199.845 189.05 190.466 162.81 190.424C136.57 190.382 115.284 199.694 115.266 211.222C115.249 222.75 136.506 232.13 162.746 232.171C188.986 232.213 210.272 222.902 210.29 211.373Z" fill="#3A0808"/>
<path opacity="0.38461" d="M208.409 211.37C208.427 200.299 188.011 191.29 162.81 191.25C137.608 191.21 117.165 200.153 117.148 211.225C117.13 222.297 137.546 231.305 162.747 231.345C187.949 231.385 208.392 222.442 208.409 211.37Z" fill="#380909"/>
<path opacity="0.42308" d="M206.529 211.366C206.545 200.751 186.971 192.114 162.808 192.075C138.646 192.037 119.045 200.611 119.028 211.227C119.012 221.843 138.586 230.479 162.749 230.518C186.912 230.556 206.513 221.982 206.529 211.366Z" fill="#360A0A"/>
<path opacity="0.46154" d="M204.649 211.364C204.665 201.205 185.932 192.939 162.808 192.903C139.684 192.866 120.925 201.072 120.909 211.231C120.894 221.39 139.627 229.656 162.751 229.693C185.875 229.73 204.633 221.524 204.649 211.364Z" fill="#340B0B"/>
<path opacity="0.5" d="M202.769 211.362C202.784 201.658 184.892 193.764 162.807 193.729C140.721 193.694 122.806 201.531 122.79 211.234C122.775 220.937 140.667 228.831 162.752 228.867C184.838 228.902 202.754 221.065 202.769 211.362Z" fill="#330C0C"/>
<path opacity="0.53846" d="M200.888 211.358C200.903 202.111 183.853 194.588 162.806 194.554C141.759 194.52 124.686 201.989 124.671 211.236C124.657 220.483 141.707 228.006 162.754 228.039C183.801 228.073 200.874 220.604 200.888 211.358Z" fill="#310D0D"/>
<path opacity="0.57692" d="M199.008 211.356C199.021 202.565 182.813 195.413 162.804 195.381C142.796 195.349 126.565 202.449 126.552 211.24C126.538 220.03 142.747 227.182 162.755 227.214C182.763 227.246 198.994 220.146 199.008 211.356Z" fill="#2F0E0E"/>
<path opacity="0.61538" d="M197.128 211.352C197.14 203.017 181.773 196.237 162.804 196.206C143.834 196.176 128.446 202.908 128.433 211.242C128.42 219.576 143.787 226.357 162.757 226.387C181.726 226.417 197.115 219.686 197.128 211.352Z" fill="#2D0F0F"/>
<path opacity="0.65385" d="M195.247 211.349C195.26 203.471 180.734 197.061 162.803 197.033C144.872 197.004 130.326 203.367 130.314 211.245C130.302 219.123 144.828 225.532 162.758 225.561C180.689 225.589 195.235 219.226 195.247 211.349Z" fill="#2B1010"/>
<path opacity="0.69231" d="M193.367 211.346C193.379 203.924 179.694 197.886 162.802 197.859C145.91 197.832 132.207 203.826 132.195 211.248C132.184 218.669 145.868 224.707 162.76 224.734C179.653 224.761 193.356 218.767 193.367 211.346Z" fill="#291111"/>
<path opacity="0.73077" d="M191.487 211.343C191.498 204.377 178.654 198.71 162.801 198.685C146.947 198.66 134.087 204.286 134.076 211.251C134.065 218.216 146.908 223.883 162.762 223.908C178.615 223.934 191.476 218.308 191.487 211.343Z" fill="#271212"/>
<path opacity="0.76923" d="M189.606 211.34C189.616 204.831 177.615 199.535 162.8 199.511C147.985 199.488 135.966 204.745 135.956 211.254C135.946 217.763 147.948 223.058 162.763 223.082C177.578 223.106 189.596 217.848 189.606 211.34Z" fill="#251212"/>
<path opacity="0.80769" d="M187.726 211.337C187.736 205.284 176.575 200.36 162.799 200.338C149.023 200.316 137.847 205.204 137.838 211.257C137.828 217.309 148.988 222.234 162.765 222.256C176.541 222.278 187.717 217.389 187.726 211.337Z" fill="#231313"/>
<path opacity="0.84615" d="M185.846 211.334C185.855 205.737 175.536 201.184 162.798 201.164C150.06 201.143 139.727 205.663 139.719 211.26C139.71 216.856 150.029 221.409 162.767 221.43C175.504 221.45 185.837 216.93 185.846 211.334Z" fill="#211414"/>
<path opacity="0.88461" d="M183.966 211.33C183.974 206.19 174.496 202.008 162.797 201.989C151.098 201.97 141.608 206.122 141.6 211.262C141.592 216.402 151.069 220.584 162.768 220.602C174.467 220.621 183.958 216.469 183.966 211.33Z" fill="#1F1515"/>
<path opacity="0.92308" d="M182.086 211.328C182.093 206.644 173.457 202.833 162.796 202.816C152.136 202.799 143.488 206.582 143.48 211.266C143.473 215.949 152.109 219.76 162.77 219.777C173.43 219.794 182.078 216.011 182.086 211.328Z" fill="#1D1616"/>
<path opacity="0.96154" d="M180.205 211.324C180.212 207.096 172.417 203.657 162.795 203.641C153.173 203.626 145.368 207.04 145.361 211.268C145.354 215.495 153.149 218.934 162.771 218.95C172.393 218.965 180.198 215.551 180.205 211.324Z" fill="#1B1717"/>
<path d="M178.324 211.32C178.33 207.549 171.377 204.48 162.794 204.467C154.21 204.453 147.248 207.499 147.242 211.27C147.236 215.041 154.189 218.109 162.772 218.123C171.356 218.136 178.318 215.091 178.324 211.32Z" fill="#191818"/>
</g>
<g opacity="0.23">
<path opacity="0.03846" d="M506.798 256.448C506.812 246.986 489.365 239.288 467.828 239.254C446.29 239.219 428.819 246.862 428.805 256.324C428.79 265.786 446.237 273.485 467.775 273.519C489.312 273.553 506.783 265.911 506.798 256.448Z" fill="#4A0101"/>
<path opacity="0.07692" d="M505.626 256.446C505.64 247.268 488.717 239.801 467.827 239.768C446.938 239.735 429.992 247.148 429.978 256.326C429.963 265.503 446.886 272.97 467.776 273.004C488.666 273.037 505.612 265.624 505.626 256.446Z" fill="#480202"/>
<path opacity="0.11539" d="M504.453 256.445C504.467 247.551 488.068 240.316 467.826 240.284C447.584 240.251 431.163 247.435 431.149 256.328C431.136 265.221 447.534 272.457 467.776 272.489C488.019 272.521 504.439 265.338 504.453 256.445Z" fill="#460303"/>
<path opacity="0.15385" d="M503.281 256.442C503.294 247.834 487.42 240.829 467.826 240.798C448.231 240.767 432.335 247.721 432.322 256.329C432.309 264.938 448.183 271.942 467.777 271.973C487.372 272.005 503.268 265.051 503.281 256.442Z" fill="#440404"/>
<path opacity="0.19231" d="M502.109 256.44C502.122 248.116 486.773 241.343 467.825 241.313C448.878 241.283 433.508 248.006 433.495 256.331C433.482 264.655 448.831 271.428 467.779 271.458C486.726 271.488 502.096 264.764 502.109 256.44Z" fill="#420505"/>
<path opacity="0.23077" d="M500.937 256.439C500.949 248.399 486.124 241.857 467.824 241.828C449.525 241.799 434.68 248.293 434.667 256.333C434.655 264.373 449.48 270.914 467.779 270.943C486.079 270.973 500.924 264.479 500.937 256.439Z" fill="#400606"/>
<path opacity="0.26923" d="M499.765 256.436C499.777 248.681 485.476 242.371 467.824 242.343C450.171 242.315 435.852 248.579 435.84 256.334C435.828 264.09 450.128 270.4 467.78 270.428C485.433 270.456 499.753 264.192 499.765 256.436Z" fill="#3E0606"/>
<path opacity="0.30769" d="M498.593 256.434C498.604 248.963 484.828 242.885 467.824 242.857C450.819 242.83 437.024 248.865 437.012 256.336C437.001 263.807 450.777 269.885 467.782 269.912C484.787 269.939 498.581 263.905 498.593 256.434Z" fill="#3C0707"/>
<path opacity="0.34615" d="M497.421 256.432C497.432 249.245 484.18 243.398 467.823 243.372C451.465 243.346 438.196 249.151 438.185 256.337C438.174 263.524 451.425 269.371 467.783 269.397C484.14 269.423 497.41 263.618 497.421 256.432Z" fill="#3A0808"/>
<path opacity="0.38461" d="M496.249 256.43C496.259 249.528 483.533 243.913 467.823 243.888C452.113 243.863 439.368 249.438 439.358 256.34C439.347 263.242 452.074 268.857 467.784 268.882C483.494 268.907 496.238 263.332 496.249 256.43Z" fill="#380909"/>
<path opacity="0.42308" d="M495.076 256.429C495.086 249.811 482.884 244.427 467.822 244.403C452.759 244.379 440.54 249.724 440.53 256.342C440.52 262.96 452.722 268.344 467.784 268.368C482.847 268.392 495.066 263.047 495.076 256.429Z" fill="#360A0A"/>
<path opacity="0.46154" d="M493.904 256.427C493.914 250.093 482.236 244.941 467.821 244.918C453.406 244.895 441.712 250.01 441.703 256.343C441.693 262.677 453.371 267.829 467.786 267.852C482.201 267.875 493.894 262.76 493.904 256.427Z" fill="#340B0B"/>
<path opacity="0.5" d="M492.732 256.424C492.741 250.375 481.588 245.454 467.82 245.432C454.053 245.41 442.884 250.296 442.875 256.345C442.866 262.393 454.019 267.315 467.786 267.337C481.554 267.359 492.723 262.473 492.732 256.424Z" fill="#330C0C"/>
<path opacity="0.53846" d="M491.56 256.422C491.569 250.658 480.94 245.968 467.82 245.947C454.7 245.926 444.056 250.582 444.047 256.346C444.038 262.11 454.667 266.8 467.787 266.821C480.908 266.842 491.551 262.186 491.56 256.422Z" fill="#310D0D"/>
<path opacity="0.57692" d="M490.387 256.42C490.396 250.941 480.292 246.482 467.819 246.462C455.346 246.443 445.228 250.869 445.22 256.348C445.211 261.828 455.315 266.287 467.788 266.307C480.261 266.326 490.379 261.9 490.387 256.42Z" fill="#2F0E0E"/>
<path opacity="0.61538" d="M489.215 256.419C489.223 251.224 479.644 246.997 467.818 246.978C455.993 246.959 446.4 251.156 446.392 256.351C446.384 261.546 455.964 265.773 467.789 265.792C479.614 265.811 489.207 261.614 489.215 256.419Z" fill="#2D0F0F"/>
<path opacity="0.65385" d="M488.043 256.417C488.051 251.506 478.996 247.51 467.818 247.493C456.64 247.475 447.573 251.441 447.565 256.352C447.557 261.263 456.613 265.259 467.79 265.276C478.968 265.294 488.036 261.328 488.043 256.417Z" fill="#2B1010"/>
<path opacity="0.69231" d="M486.871 256.414C486.878 251.788 478.348 248.024 467.817 248.007C457.287 247.99 448.745 251.727 448.738 256.354C448.73 260.98 457.261 264.744 467.791 264.761C478.322 264.778 486.864 261.041 486.871 256.414Z" fill="#291111"/>
<path opacity="0.73077" d="M485.699 256.412C485.706 252.07 477.699 248.537 467.817 248.522C457.934 248.506 449.917 252.013 449.91 256.355C449.903 260.697 457.909 264.23 467.792 264.245C477.675 264.261 485.692 260.754 485.699 256.412Z" fill="#271212"/>
<path opacity="0.76923" d="M484.527 256.41C484.533 252.352 477.052 249.051 467.816 249.036C458.581 249.022 451.089 252.299 451.083 256.356C451.076 260.414 458.558 263.715 467.793 263.73C477.029 263.745 484.521 260.467 484.527 256.41Z" fill="#251212"/>
<path opacity="0.80769" d="M483.355 256.409C483.361 252.636 476.404 249.567 467.816 249.553C459.228 249.539 452.261 252.587 452.255 256.36C452.249 260.133 459.207 263.203 467.794 263.216C476.382 263.23 483.349 260.182 483.355 256.409Z" fill="#231313"/>
<path opacity="0.84615" d="M482.183 256.407C482.188 252.918 475.755 250.08 467.815 250.067C459.874 250.055 453.433 252.872 453.428 256.361C453.422 259.85 459.855 262.688 467.795 262.701C475.736 262.713 482.177 259.896 482.183 256.407Z" fill="#211414"/>
<path opacity="0.88461" d="M481.01 256.405C481.015 253.201 475.107 250.594 467.814 250.582C460.521 250.57 454.605 253.158 454.6 256.362C454.595 259.567 460.503 262.174 467.796 262.185C475.089 262.197 481.005 259.609 481.01 256.405Z" fill="#1F1515"/>
<path opacity="0.92308" d="M479.839 256.403C479.843 253.484 474.46 251.108 467.814 251.098C461.168 251.087 455.777 253.445 455.773 256.365C455.768 259.285 461.152 261.66 467.797 261.671C474.443 261.681 479.834 259.323 479.839 256.403Z" fill="#1D1616"/>
<path opacity="0.96154" d="M478.666 256.401C478.67 253.766 473.811 251.622 467.813 251.612C461.815 251.602 456.949 253.731 456.945 256.366C456.941 259.001 461.8 261.145 467.798 261.155C473.796 261.165 478.662 259.036 478.666 256.401Z" fill="#1B1717"/>
<path d="M477.494 256.399C477.497 254.048 473.163 252.135 467.812 252.127C462.461 252.118 458.121 254.017 458.117 256.368C458.114 258.718 462.448 260.631 467.799 260.64C473.149 260.648 477.49 258.749 477.494 256.399Z" fill="#191818"/>
</g>
<path d="M154.342 91.5822L92.8254 71.0508L84.0244 107.625L145.804 126.91C152.587 129.174 156.832 136.702 155.267 143.693L151.282 161.494C150.127 166.654 145.745 170.258 140.625 170.258C139.713 170.255 138.804 170.146 137.917 169.932L73.2927 152.222L64.2285 189.889L132.439 206.134C156.987 211.98 180.322 197.249 185.885 172.394L189.87 154.592C195.783 128.175 179.973 100.137 154.342 91.5822Z" fill="url(#paint0_linear_38_5680)"/>
<path d="M182.346 89.7472L120.83 69.2158L112.029 105.79L173.809 125.075C180.591 127.339 184.836 134.867 183.272 141.858L179.287 159.659C178.132 164.819 173.75 168.423 168.63 168.423C167.717 168.42 166.809 168.311 165.921 168.097L101.297 150.387L92.2332 188.054L160.444 204.299C184.992 210.145 208.326 195.414 213.89 170.559L217.874 152.757C223.787 126.34 207.978 98.302 182.346 89.7472Z" fill="url(#paint1_linear_38_5680)"/>
<path d="M73.2927 152.222L101.297 150.387L92.2326 188.054L64.2285 189.889L73.2927 152.222Z" fill="url(#paint2_linear_38_5680)"/>
<path d="M92.8258 71.0506L120.83 69.2158L112.029 105.79L84.0247 107.624L92.8258 71.0506Z" fill="url(#paint3_linear_38_5680)"/>
<path d="M120.83 69.2158L149.839 78.8975L140.667 114.729L112.029 105.79L120.83 69.2158Z" fill="url(#paint4_linear_38_5680)"/>
<path d="M112.768 116.564L140.773 114.729L112.029 105.789L84.0247 107.624L112.768 116.564Z" fill="url(#paint5_linear_38_5680)"/>
<path d="M72.8917 151.304L100.896 149.469L92.0947 186.043L64.0906 187.878L72.8917 151.304Z" fill="#984ED6"/>
<path d="M100.896 149.469L130.125 158.287L120.732 194.982L92.0947 186.043L100.896 149.469Z" fill="url(#paint6_linear_38_5680)"/>
<path d="M92.8345 196.817L120.839 194.983L92.0947 186.043L64.0906 187.878L92.8345 196.817Z" fill="url(#paint7_linear_38_5680)"/>
<path d="M243.686 96.0497L386.468 99.2627C392.049 99.6119 399.078 110.975 397.084 116.423L348.955 247.925C346.788 253.845 340.458 257.459 334.632 256.101L194.041 223.331C188.957 222.146 179.896 212.838 181.9 207.704L229.968 105.081C232.17 99.4382 237.87 95.6858 243.686 96.0497Z" fill="url(#paint8_linear_38_5680)"/>
<path d="M391.869 105.939L271.923 176.208L234.102 88.8936C235.343 88.5926 236.621 88.4792 237.895 88.557L384.362 97.721C388.904 97.9996 391.971 101.65 391.869 105.939Z" fill="url(#paint9_linear_38_5680)"/>
<path d="M391.296 108.929L343.167 240.431C343.063 240.71 342.956 240.977 342.836 241.244C342.791 241.348 342.745 241.452 342.688 241.557C342.243 242.494 341.683 243.372 341.023 244.169C340.95 244.261 340.871 244.354 340.793 244.441C340.629 244.633 340.46 244.818 340.279 244.998C340.208 245.074 340.137 245.143 340.067 245.213C339.906 245.37 339.746 245.521 339.581 245.666C338.967 246.213 338.303 246.698 337.598 247.117C337.493 247.181 337.388 247.244 337.278 247.302C337.251 247.321 337.223 247.337 337.192 247.349C337.064 247.418 336.935 247.488 336.807 247.552C336.63 247.645 336.453 247.732 336.272 247.807C336.162 247.859 336.053 247.906 335.944 247.952C335.353 248.2 334.744 248.4 334.123 248.55C333.974 248.591 333.832 248.62 333.684 248.649C333.536 248.684 333.395 248.707 333.247 248.73C333.23 248.737 333.212 248.74 333.194 248.742C333.071 248.759 332.947 248.782 332.824 248.794C332.594 248.829 332.366 248.852 332.139 248.864C332.034 248.869 331.923 248.881 331.813 248.881C330.816 248.926 329.818 248.834 328.846 248.608L188.252 215.835C188.06 215.789 187.874 215.743 187.694 215.684C187.426 215.607 187.162 215.512 186.906 215.4C186.745 215.336 186.584 215.261 186.429 215.185C186.22 215.081 186.011 214.971 185.815 214.849C185.656 214.756 185.51 214.657 185.364 214.553C185.235 214.467 185.111 214.374 184.992 214.274C184.938 214.234 184.884 214.193 184.831 214.147C184.718 214.059 184.613 213.961 184.507 213.862C184.443 213.804 184.385 213.746 184.322 213.682C184.221 213.589 184.127 213.485 184.034 213.38C183.988 213.333 183.944 213.283 183.904 213.23C183.803 213.121 183.708 213.007 183.62 212.887C183.503 212.743 183.395 212.592 183.295 212.434C183.113 212.156 182.946 211.868 182.797 211.57C182.739 211.459 182.686 211.349 182.639 211.239C182.587 211.129 182.54 211.013 182.495 210.897C182.457 210.804 182.421 210.705 182.39 210.606C182.34 210.473 182.296 210.334 182.252 210.194C182.199 210.025 182.154 209.852 182.119 209.678L182.095 209.573C182.059 209.417 182.028 209.26 182.004 209.097C181.973 208.883 181.943 208.662 181.931 208.442C181.85 207.451 181.929 206.453 182.165 205.488C182.275 205.046 182.412 204.612 182.574 204.188L224.178 97.5882C225.032 95.4436 226.378 93.5362 228.104 92.0243C229.83 90.5125 231.887 89.4395 234.103 88.8945L271.924 176.209L391.87 105.94C391.846 106.962 391.652 107.972 391.296 108.929Z" fill="url(#paint10_linear_38_5680)"/>
<path d="M239.743 101.915L264.358 36.686C264.84 35.4091 265.715 34.3244 266.855 33.5935C267.994 32.8626 269.336 32.5247 270.68 32.6302L387.964 41.8364C388.832 41.9045 389.672 42.1779 390.417 42.6346C391.162 43.0914 391.791 43.7188 392.254 44.4665C392.717 45.2143 393 46.0616 393.082 46.9406C393.164 47.8196 393.041 48.7057 392.725 49.5281L364.914 121.73L271.923 176.208L239.743 101.915Z" fill="url(#paint11_linear_38_5680)"/>
<path d="M162.776 251.053V296.633L86.5425 284.478L162.776 251.053Z" fill="url(#paint12_linear_38_5680)"/>
<path d="M86.5425 284.478L143.801 236.197L162.776 251.053L86.5425 284.478Z" fill="url(#paint13_linear_38_5680)"/>
<path d="M206.053 279.752L86.5425 284.478L176.758 260.338L206.053 279.752Z" fill="url(#paint14_linear_38_5680)"/>
<path d="M162.776 251.054C162.776 251.054 206.979 220.567 239.743 268.12C272.508 315.674 321.737 308.421 334.632 256.102" stroke="#B3B3B3" stroke-width="8" stroke-miterlimit="10" stroke-dasharray="18 16"/>
<path d="M360.774 81.178L272.144 73.7332C271.571 73.6712 271.041 73.3986 270.653 72.9668C270.266 72.5351 270.047 71.9742 270.04 71.3903V71.3903C270.034 71.1149 270.085 70.8414 270.191 70.5876C270.297 70.3338 270.454 70.1055 270.652 69.9176C270.851 69.7298 271.086 69.5866 271.343 69.4976C271.6 69.4085 271.873 69.3755 272.144 69.4008L360.774 76.8457C361.346 76.9076 361.876 77.1803 362.264 77.612C362.652 78.0438 362.87 78.6046 362.877 79.1885V79.1885C362.883 79.4639 362.832 79.7375 362.726 79.9913C362.621 80.2451 362.463 80.4734 362.265 80.6612C362.066 80.8491 361.831 80.9922 361.574 81.0813C361.317 81.1704 361.044 81.2033 360.774 81.178Z" fill="#D5D5D5"/>
<path d="M356.501 92.97L267.871 85.5252C267.299 85.4632 266.769 85.1906 266.381 84.7588C265.993 84.3271 265.775 83.7662 265.768 83.1823V83.1823C265.762 82.9069 265.813 82.6334 265.919 82.3796C266.024 82.1258 266.182 81.8975 266.38 81.7096C266.579 81.5218 266.814 81.3786 267.071 81.2896C267.328 81.2005 267.601 81.1675 267.871 81.1928L356.501 88.6377C357.074 88.6996 357.604 88.9723 357.992 89.404C358.379 89.8358 358.597 90.3967 358.605 90.9805C358.611 91.2559 358.559 91.5295 358.454 91.7833C358.348 92.0371 358.191 92.2654 357.993 92.4532C357.794 92.6411 357.558 92.7842 357.301 92.8733C357.044 92.9623 356.772 92.9953 356.501 92.97Z" fill="#D5D5D5"/>
<path d="M352.23 104.762L263.6 97.3172C263.027 97.2552 262.497 96.9826 262.109 96.5508C261.722 96.1191 261.503 95.5582 261.496 94.9743C261.49 94.6989 261.542 94.4254 261.647 94.1716C261.753 93.9178 261.91 93.6895 262.108 93.5016C262.307 93.3138 262.543 93.1706 262.8 93.0815C263.057 92.9925 263.329 92.9595 263.6 92.9848L352.23 100.43C352.802 100.492 353.332 100.764 353.72 101.196C354.108 101.628 354.326 102.189 354.333 102.773C354.339 103.048 354.288 103.321 354.182 103.575C354.077 103.829 353.919 104.057 353.721 104.245C353.522 104.433 353.287 104.576 353.03 104.665C352.773 104.754 352.5 104.787 352.23 104.762Z" fill="#D5D5D5"/>
<path d="M347.958 116.553L259.328 109.108C258.756 109.046 258.226 108.774 257.838 108.342C257.45 107.91 257.232 107.349 257.225 106.765C257.219 106.49 257.27 106.216 257.376 105.963C257.481 105.709 257.639 105.48 257.837 105.293C258.036 105.105 258.271 104.962 258.528 104.873C258.785 104.783 259.058 104.751 259.328 104.776L347.958 112.221C348.531 112.283 349.061 112.555 349.449 112.987C349.836 113.419 350.055 113.98 350.062 114.564C350.068 114.839 350.016 115.112 349.911 115.366C349.805 115.62 349.648 115.848 349.45 116.036C349.251 116.224 349.015 116.367 348.758 116.456C348.501 116.545 348.229 116.578 347.958 116.553Z" fill="#D5D5D5"/>
<path d="M343.687 128.345L255.057 120.9C254.484 120.838 253.954 120.566 253.566 120.134C253.179 119.702 252.96 119.141 252.953 118.557C252.947 118.282 252.999 118.008 253.104 117.755C253.21 117.501 253.367 117.272 253.565 117.085C253.764 116.897 254 116.754 254.257 116.665C254.514 116.575 254.786 116.543 255.057 116.568L343.687 124.013C344.259 124.075 344.789 124.347 345.177 124.779C345.565 125.211 345.783 125.772 345.79 126.356C345.796 126.631 345.745 126.904 345.639 127.158C345.534 127.412 345.376 127.64 345.178 127.828C344.979 128.016 344.744 128.159 344.487 128.248C344.23 128.337 343.957 128.37 343.687 128.345Z" fill="#D5D5D5"/>
<path d="M339.415 140.137L250.785 132.692C250.212 132.63 249.682 132.358 249.295 131.926C248.907 131.494 248.689 130.933 248.681 130.349C248.675 130.074 248.727 129.8 248.832 129.547C248.938 129.293 249.095 129.064 249.294 128.877C249.492 128.689 249.728 128.546 249.985 128.457C250.242 128.367 250.514 128.335 250.785 128.36L339.415 135.805C339.987 135.867 340.518 136.139 340.905 136.571C341.293 137.003 341.511 137.564 341.518 138.148C341.524 138.423 341.473 138.696 341.368 138.95C341.262 139.204 341.105 139.432 340.906 139.62C340.707 139.808 340.472 139.951 340.215 140.04C339.958 140.129 339.685 140.162 339.415 140.137Z" fill="#D5D5D5"/>
<path d="M335.143 151.928L246.513 144.483C245.941 144.421 245.41 144.149 245.023 143.717C244.635 143.285 244.417 142.724 244.41 142.14V142.14C244.404 141.865 244.455 141.591 244.561 141.338C244.666 141.084 244.823 140.855 245.022 140.668C245.221 140.48 245.456 140.337 245.713 140.248C245.97 140.158 246.243 140.126 246.513 140.151L335.143 147.596C335.716 147.658 336.246 147.93 336.634 148.362C337.021 148.794 337.239 149.355 337.247 149.939V149.939C337.253 150.214 337.201 150.487 337.096 150.741C336.99 150.995 336.833 151.223 336.634 151.411C336.436 151.599 336.2 151.742 335.943 151.831C335.686 151.92 335.414 151.953 335.143 151.928Z" fill="#D5D5D5"/>
<g opacity="0.23">
<path opacity="0.03846" d="M348.145 151.839C348.168 136.66 320.18 124.311 285.631 124.256C251.082 124.201 223.056 136.461 223.032 151.639C223.009 166.818 250.997 179.168 285.546 179.223C320.095 179.278 348.121 167.018 348.145 151.839Z" fill="#4A0101"/>
<path opacity="0.07692" d="M346.264 151.835C346.287 137.112 319.14 125.134 285.63 125.081C252.12 125.027 224.936 136.919 224.913 151.641C224.89 166.364 252.037 178.342 285.547 178.396C319.058 178.449 346.241 166.557 346.264 151.835Z" fill="#480202"/>
<path opacity="0.11539" d="M344.384 151.831C344.406 137.565 318.101 125.958 285.629 125.906C253.157 125.854 226.816 137.377 226.794 151.643C226.772 165.91 253.077 177.517 285.549 177.568C318.021 177.62 344.362 166.097 344.384 151.831Z" fill="#460303"/>
<path opacity="0.15385" d="M342.504 151.829C342.525 138.019 317.061 126.783 285.628 126.733C254.195 126.683 228.696 137.838 228.675 151.647C228.653 165.457 254.117 176.693 285.55 176.743C316.983 176.793 342.482 165.639 342.504 151.829Z" fill="#440404"/>
<path opacity="0.19231" d="M340.624 151.825C340.644 138.471 316.022 127.607 285.627 127.558C255.233 127.51 230.576 138.296 230.556 151.649C230.535 165.003 255.158 175.867 285.552 175.916C315.947 175.964 340.603 165.178 340.624 151.825Z" fill="#420505"/>
<path opacity="0.23077" d="M338.743 151.822C338.763 138.925 314.982 128.432 285.626 128.385C256.271 128.338 232.457 138.755 232.437 151.652C232.417 164.55 256.198 175.043 285.554 175.09C314.91 175.136 338.723 164.719 338.743 151.822Z" fill="#400606"/>
<path opacity="0.26923" d="M336.864 151.819C336.883 139.378 313.943 129.256 285.626 129.211C257.309 129.166 234.337 139.215 234.318 151.655C234.299 164.096 257.239 174.218 285.556 174.263C313.873 174.309 336.844 164.26 336.864 151.819Z" fill="#3E0606"/>
<path opacity="0.30769" d="M334.983 151.816C335.001 139.831 312.903 130.081 285.624 130.037C258.346 129.994 236.217 139.674 236.199 151.658C236.18 163.643 258.279 173.394 285.557 173.437C312.836 173.481 334.964 163.801 334.983 151.816Z" fill="#3C0707"/>
<path opacity="0.34615" d="M333.102 151.813C333.12 140.285 311.863 130.905 285.623 130.863C259.383 130.822 238.097 140.133 238.079 151.661C238.061 163.19 259.318 172.569 285.558 172.611C311.798 172.653 333.084 163.341 333.102 151.813Z" fill="#3A0808"/>
<path opacity="0.38461" d="M331.222 151.81C331.24 140.738 310.824 131.73 285.623 131.69C260.421 131.649 239.978 140.592 239.961 151.664C239.943 162.736 260.359 171.745 285.56 171.785C310.762 171.825 331.205 162.882 331.222 151.81Z" fill="#380909"/>
<path opacity="0.42308" d="M329.342 151.807C329.359 141.191 309.784 132.554 285.622 132.516C261.459 132.477 241.858 141.052 241.842 151.667C241.825 162.283 261.399 170.92 285.562 170.958C309.725 170.997 329.326 162.423 329.342 151.807Z" fill="#360A0A"/>
<path opacity="0.46154" d="M327.462 151.804C327.477 141.645 308.744 133.379 285.62 133.342C262.496 133.305 243.738 141.511 243.722 151.67C243.706 161.83 262.439 170.095 285.563 170.132C308.687 170.169 327.446 161.963 327.462 151.804Z" fill="#340B0B"/>
<path opacity="0.5" d="M325.581 151.801C325.596 142.098 307.704 134.203 285.619 134.168C263.534 134.133 245.618 141.97 245.603 151.673C245.588 161.376 263.479 169.271 285.565 169.306C307.65 169.341 325.566 161.504 325.581 151.801Z" fill="#330C0C"/>
<path opacity="0.53846" d="M323.701 151.797C323.715 142.55 306.665 135.027 285.618 134.993C264.572 134.96 247.498 142.429 247.484 151.675C247.47 160.922 264.52 168.445 285.567 168.479C306.613 168.512 323.687 161.044 323.701 151.797Z" fill="#310D0D"/>
<path opacity="0.57692" d="M321.821 151.794C321.835 143.004 305.626 135.852 285.618 135.82C265.61 135.788 249.379 142.888 249.365 151.678C249.351 160.469 265.56 167.621 285.568 167.653C305.576 167.685 321.807 160.584 321.821 151.794Z" fill="#2F0E0E"/>
<path opacity="0.61538" d="M319.94 151.791C319.953 143.457 304.586 136.676 285.616 136.646C266.647 136.616 251.259 143.347 251.246 151.681C251.233 160.015 266.6 166.796 285.569 166.826C304.539 166.857 319.927 160.125 319.94 151.791Z" fill="#2D0F0F"/>
<path opacity="0.65385" d="M318.06 151.788C318.073 143.91 303.547 137.501 285.616 137.472C267.685 137.443 253.139 143.806 253.127 151.684C253.115 159.562 267.641 165.971 285.571 166C303.502 166.029 318.048 159.666 318.06 151.788Z" fill="#2B1010"/>
<path opacity="0.69231" d="M316.18 151.785C316.192 144.364 302.507 138.325 285.615 138.298C268.723 138.271 255.019 144.266 255.008 151.687C254.996 159.109 268.681 165.147 285.573 165.174C302.465 165.201 316.169 159.206 316.18 151.785Z" fill="#291111"/>
<path opacity="0.73077" d="M314.3 151.781C314.31 144.816 301.467 139.149 285.614 139.124C269.76 139.098 256.899 144.724 256.888 151.689C256.878 158.654 269.721 164.321 285.574 164.347C301.428 164.372 314.289 158.746 314.3 151.781Z" fill="#271212"/>
<path opacity="0.76923" d="M312.419 151.779C312.429 145.27 300.427 139.974 285.612 139.951C270.797 139.927 258.779 145.184 258.769 151.693C258.759 158.202 270.761 163.498 285.576 163.521C300.391 163.545 312.409 158.288 312.419 151.779Z" fill="#251212"/>
<path opacity="0.80769" d="M310.539 151.775C310.548 145.722 299.388 140.798 285.612 140.776C271.835 140.754 260.66 145.643 260.65 151.695C260.641 157.748 271.801 162.672 285.578 162.694C299.354 162.716 310.53 157.828 310.539 151.775Z" fill="#231313"/>
<path opacity="0.84615" d="M308.659 151.773C308.668 146.177 298.349 141.624 285.611 141.603C272.873 141.583 262.54 146.103 262.531 151.699C262.523 157.295 272.842 161.849 285.579 161.869C298.317 161.889 308.65 157.369 308.659 151.773Z" fill="#211414"/>
<path opacity="0.88461" d="M306.779 151.769C306.787 146.629 297.309 142.447 285.61 142.428C273.911 142.41 264.42 146.561 264.412 151.701C264.404 156.841 273.882 161.023 285.581 161.042C297.28 161.06 306.771 156.909 306.779 151.769Z" fill="#1F1515"/>
<path opacity="0.92308" d="M304.898 151.766C304.905 147.082 296.269 143.272 285.608 143.255C274.948 143.238 266.3 147.021 266.293 151.704C266.285 156.388 274.922 160.198 285.582 160.216C296.243 160.233 304.891 156.45 304.898 151.766Z" fill="#1D1616"/>
<path opacity="0.96154" d="M303.018 151.763C303.024 147.536 295.23 144.096 285.608 144.081C275.986 144.065 268.18 147.48 268.174 151.707C268.167 155.934 275.962 159.374 285.584 159.389C295.206 159.405 303.011 155.99 303.018 151.763Z" fill="#1B1717"/>
<path d="M301.137 151.759C301.143 147.988 294.19 144.92 285.607 144.906C277.024 144.892 270.061 147.938 270.055 151.709C270.049 155.48 277.002 158.548 285.586 158.562C294.169 158.576 301.132 155.53 301.137 151.759Z" fill="#191818"/>
</g>
<path d="M391.296 108.929L343.167 240.431C343.063 240.71 342.956 240.977 342.836 241.244C342.791 241.348 342.745 241.452 342.688 241.557C342.243 242.494 341.683 243.372 341.023 244.169C340.95 244.261 340.871 244.354 340.793 244.441C340.629 244.633 340.46 244.818 340.279 244.998C340.208 245.074 340.137 245.143 340.067 245.213C339.906 245.37 339.746 245.521 339.581 245.666C338.967 246.213 338.303 246.698 337.598 247.117C337.493 247.181 337.388 247.244 337.278 247.302C337.251 247.321 337.223 247.337 337.192 247.349C337.064 247.418 336.935 247.488 336.807 247.552C336.63 247.645 336.453 247.732 336.272 247.807C336.162 247.859 336.053 247.906 335.944 247.952C335.353 248.2 334.744 248.4 334.123 248.55C333.974 248.591 333.832 248.62 333.684 248.649C333.536 248.684 333.395 248.707 333.247 248.73C333.23 248.737 333.212 248.74 333.194 248.742C333.071 248.759 332.947 248.782 332.824 248.794C332.594 248.829 332.366 248.852 332.139 248.864C332.034 248.869 331.923 248.881 331.813 248.881C330.816 248.926 329.818 248.834 328.846 248.608L188.252 215.835C188.06 215.789 187.874 215.743 187.694 215.684C187.426 215.607 187.162 215.512 186.906 215.4C186.745 215.336 186.584 215.261 186.429 215.185C186.22 215.081 186.011 214.971 185.815 214.849C185.656 214.756 185.51 214.657 185.364 214.553C185.235 214.467 185.111 214.374 184.992 214.274C184.938 214.234 184.884 214.193 184.831 214.147C184.718 214.059 184.613 213.961 184.507 213.862C184.443 213.804 184.385 213.746 184.322 213.682C184.221 213.589 184.127 213.485 184.034 213.38C183.988 213.333 183.944 213.283 183.904 213.23C183.803 213.121 183.708 213.007 183.62 212.887C183.503 212.743 183.395 212.592 183.295 212.434C183.113 212.156 182.946 211.868 182.797 211.57C182.739 211.459 182.686 211.349 182.639 211.239C182.587 211.129 182.54 211.013 182.495 210.897C182.457 210.804 182.421 210.705 182.39 210.606C182.34 210.473 182.296 210.334 182.252 210.194C182.199 210.025 182.154 209.852 182.119 209.678L182.095 209.573C182.059 209.417 182.028 209.26 182.004 209.097C181.973 208.883 181.943 208.662 181.931 208.442C181.85 207.451 181.929 206.453 182.165 205.488C182.275 205.046 182.412 204.612 182.574 204.188L224.178 97.5882C225.032 95.4436 226.378 93.5362 228.104 92.0243C229.83 90.5125 231.887 89.4395 234.103 88.8945L271.924 176.209L391.87 105.94C391.846 106.962 391.652 107.972 391.296 108.929Z" fill="url(#paint15_linear_38_5680)"/>
<path d="M339.245 245.95C336.349 248.358 332.496 249.461 328.845 248.608L188.252 215.835C186.645 215.482 185.183 214.638 184.063 213.417C182.944 212.195 182.22 210.655 181.99 209.004L271.848 145.181C273.35 144.114 275.061 143.386 276.865 143.045C278.668 142.705 280.523 142.76 282.303 143.207C284.084 143.655 285.75 144.484 287.188 145.639C288.626 146.794 289.804 148.248 290.641 149.903L339.245 245.95Z" fill="url(#paint16_linear_38_5680)"/>
<path d="M271.957 45.2119L380.19 53.6289L376.387 62.0459L268.153 53.6289L271.957 45.2119Z" fill="#D5D5D5"/>
<path d="M30.4365 42.9374L61.5468 65.0241L66.3446 47.2914L89.8287 68.3087L62.3952 32.6113L56.1731 53.5505L30.4365 42.9374Z" fill="url(#paint17_linear_38_5680)"/>
<path d="M0 194.28L37.654 199.276L33.8246 181.303L64.229 188.927L23.6306 170.138L27.6588 191.622L0 194.28Z" fill="url(#paint18_linear_38_5680)"/>
<path d="M450.569 48.2407C450.57 52.8384 449.225 57.333 446.707 61.156C444.189 64.979 440.609 67.9587 436.421 69.7184C432.233 71.4781 427.624 71.9388 423.178 71.042C418.732 70.1453 414.648 67.9315 411.442 64.6806C408.236 61.4297 406.053 57.2877 405.168 52.7784C404.284 48.2691 404.737 43.595 406.472 39.3471C408.207 35.0993 411.144 31.4685 414.913 28.914C418.683 26.3594 423.114 24.9958 427.647 24.9955C430.662 24.9773 433.651 25.5661 436.44 26.7278C439.229 27.8895 441.763 29.601 443.895 31.7631C446.027 33.9253 447.715 36.495 448.86 39.3235C450.006 42.1519 450.587 45.1829 450.569 48.2407Z" fill="url(#paint19_linear_38_5680)"/>
<path d="M422.676 50.3362L421.616 54.2209C421.616 54.2209 423.801 56.8466 427.199 56.7495C430.597 56.6524 433.625 54.5021 433.625 54.5021L431.582 49.8018L422.676 50.3362Z" fill="url(#paint20_linear_38_5680)"/>
<path d="M419.096 39.8028C417.005 40.4274 417.937 42.9826 418.531 43.7248C419.125 44.467 420.858 45.8698 420.858 45.8698C420.858 45.8698 420.967 48.4175 422.024 49.8842C423.081 51.3509 425.412 53.7271 426.345 53.8966C427.277 54.066 432.951 51.2189 433.634 50.3108C434.317 49.4026 435.064 43.9308 435.064 43.9308C435.064 43.9308 436.864 43.393 437.095 41.1475C437.327 38.9019 437.359 38.4681 436.638 38.3161C435.916 38.1642 434.282 35.0107 434.282 35.0107L424.797 35.0915L422.272 34.4375L421.077 40.9751L419.096 39.8028Z" fill="url(#paint21_linear_38_5680)"/>
<path d="M427.337 38.1982C427.337 38.1982 425.937 35.846 423.852 36.8395C421.766 37.833 421.623 41.7018 421.623 41.7018L421.009 44.9099L419.62 40.1124C419.62 40.1124 418.694 35.6769 419.101 33.9577C419.507 32.2384 421.131 31.6253 421.131 31.6253C421.131 31.6253 421.375 29.493 424.369 28.7723C427.364 28.0517 429.466 29.3678 429.466 29.3678C429.466 29.3678 432.058 28.0969 434.717 29.4345C437.377 30.7721 437.275 34.2689 437.246 36.119C437.217 37.9691 437.059 38.1451 437.059 38.1451C437.059 38.1451 434.817 38.2019 434.694 39.9131C434.571 41.6243 434.751 43.1844 434.417 43.2569C434.082 43.3295 434.067 39.0596 434.067 39.0596C434.067 39.0596 429.367 35.5594 427.337 38.1982Z" fill="url(#paint22_linear_38_5680)"/>
<path d="M445.915 62.2796C443.674 65.2789 440.748 67.6815 437.389 69.2811C434.031 70.8807 430.339 71.6293 426.633 71.4628C422.926 71.2963 419.314 70.2195 416.108 68.325C412.902 66.4305 410.197 63.775 408.227 60.5864L421.749 53.7383C421.749 53.7383 424.977 56.6377 427.82 56.3289C430.664 56.0175 432.15 53.8666 433.417 53.7802C434.392 53.7148 442.321 59.5791 445.915 62.2796Z" fill="url(#paint23_linear_38_5680)"/>
<path d="M421.622 52.0254L425.614 55.0759L422.839 58.4286L419.614 53.5345L421.622 52.0254Z" fill="url(#paint24_linear_38_5680)"/>
<path d="M428.333 54.7741L429.822 58.2032L434.724 54.2944L432.595 52.1309L428.333 54.7741Z" fill="url(#paint25_linear_38_5680)"/>
<path d="M493.229 127.908C493.229 134.048 491.434 140.05 488.071 145.155C484.708 150.26 479.928 154.239 474.336 156.589C468.743 158.939 462.589 159.554 456.652 158.356C450.714 157.159 445.261 154.203 440.98 149.861C436.699 145.52 433.784 139.989 432.602 133.968C431.421 127.946 432.027 121.705 434.343 116.032C436.659 110.36 440.582 105.512 445.615 102.1C450.648 98.689 456.566 96.8681 462.619 96.8677C466.646 96.8434 470.636 97.6297 474.361 99.181C478.085 100.732 481.469 103.018 484.316 105.905C487.163 108.792 489.416 112.224 490.946 116.001C492.476 119.778 493.252 123.825 493.229 127.908Z" fill="url(#paint26_linear_38_5680)"/>
<path d="M455.981 130.708L454.566 135.895C454.566 135.895 457.484 139.402 462.021 139.272C466.559 139.142 470.603 136.271 470.603 136.271L467.873 129.994L455.981 130.708Z" fill="url(#paint27_linear_38_5680)"/>
<path d="M451.2 116.643C448.408 117.477 449.652 120.889 450.445 121.88C451.239 122.871 453.553 124.745 453.553 124.745C453.553 124.745 453.698 128.147 455.11 130.105C456.521 132.064 459.634 135.237 460.88 135.463C462.125 135.69 469.702 131.888 470.614 130.675C471.526 129.462 472.523 122.155 472.523 122.155C472.523 122.155 474.927 121.437 475.236 118.439C475.545 115.44 475.588 114.861 474.624 114.658C473.661 114.455 471.478 110.244 471.478 110.244L458.813 110.352L455.441 109.479L453.846 118.209L451.2 116.643Z" fill="url(#paint28_linear_38_5680)"/>
<path d="M457.551 112.686C454.766 114.013 454.575 119.179 454.575 119.179L453.756 123.463L451.9 117.056C451.9 117.056 450.664 111.133 451.207 108.838C451.749 106.542 453.918 105.723 453.918 105.723C453.918 105.723 453.961 102.256 457.96 101.294C461.958 100.332 468.509 101.011 472.061 102.798C475.612 104.584 475.477 109.253 475.437 111.724C475.398 114.194 475.188 114.429 475.188 114.429C475.188 114.429 472.194 114.505 472.03 116.79C471.865 119.075 472.106 121.159 471.659 121.256C471.213 121.352 471.28 118.928 471.28 118.928C471.28 118.928 460.336 111.359 457.551 112.686Z" fill="url(#paint29_linear_38_5680)"/>
<path d="M487.013 146.656C484.02 150.661 480.114 153.869 475.629 156.005C471.144 158.141 466.214 159.141 461.264 158.919C456.314 158.696 451.492 157.258 447.21 154.729C442.929 152.199 439.318 148.653 436.686 144.395L454.743 135.25C454.743 135.25 459.053 139.122 462.85 138.709C466.647 138.294 468.632 135.421 470.323 135.306C471.626 135.219 482.213 143.05 487.013 146.656Z" fill="url(#paint30_linear_38_5680)"/>
<path d="M454.573 132.963L459.903 137.037L456.197 141.514L451.891 134.978L454.573 132.963Z" fill="url(#paint31_linear_38_5680)"/>
<path d="M463.535 136.633L465.523 141.212L472.069 135.993L469.226 133.104L463.535 136.633Z" fill="url(#paint32_linear_38_5680)"/>
<path d="M340.148 255.305C345.906 256.741 351.866 257.155 357.763 256.528C377.445 254.477 395.223 241.216 401.407 222.02C409.411 197.172 394.962 171.799 369.129 165.339C343.301 158.88 315.878 173.782 307.873 198.63C302.061 216.674 308.092 234.998 321.729 246.15C326.861 250.352 333.079 253.537 340.148 255.305ZM356.589 239.16C352.908 239.552 349.189 239.293 345.595 238.396C341.397 237.37 337.473 235.42 334.1 232.685C325.587 225.724 321.825 214.288 325.453 203.026C330.449 187.517 347.563 178.217 363.682 182.248C379.805 186.28 388.823 202.115 383.827 217.624C379.969 229.602 368.874 237.882 356.589 239.16Z" fill="url(#paint33_linear_38_5680)"/>
<path d="M357.763 256.528C377.445 254.477 395.223 241.216 401.407 222.02L401.456 216.65L383.828 217.624C379.969 229.602 368.874 237.883 356.589 239.161L357.763 256.528Z" fill="url(#paint34_linear_38_5680)"/>
<path d="M340.148 255.306C345.906 256.742 351.866 257.155 357.763 256.528L356.589 239.161C352.909 239.552 349.189 239.294 345.595 238.397C341.397 237.371 337.473 235.421 334.1 232.686L321.933 240.316L321.729 246.15C326.861 250.353 333.079 253.538 340.148 255.306Z" fill="url(#paint35_linear_38_5680)"/>
<path d="M340.352 249.471C346.11 250.907 352.07 251.321 357.967 250.694C377.649 248.643 395.427 235.382 401.611 216.186C409.615 191.338 395.166 165.965 369.333 159.505C343.505 153.046 316.081 167.948 308.077 192.796C302.265 210.84 308.296 229.164 321.933 240.316C327.065 244.518 333.283 247.703 340.352 249.471ZM356.793 233.326C353.112 233.718 349.393 233.459 345.799 232.562C341.601 231.536 337.676 229.586 334.304 226.851C325.791 219.89 322.029 208.454 325.657 197.192C330.652 181.683 347.767 172.383 363.886 176.414C380.009 180.446 389.027 196.281 384.031 211.79C380.173 223.768 369.078 232.048 356.793 233.326Z" fill="url(#paint36_linear_38_5680)"/>
<path d="M357.967 250.693C377.649 248.642 395.427 235.381 401.611 216.185L384.032 211.789C380.173 223.767 369.078 232.048 356.793 233.326L357.967 250.693Z" fill="url(#paint37_linear_38_5680)"/>
<path d="M340.352 249.472C346.11 250.908 352.07 251.321 357.967 250.694L356.793 233.327C353.113 233.718 349.393 233.46 345.799 232.563C341.601 231.537 337.677 229.587 334.304 226.852L321.933 240.316C327.065 244.519 333.283 247.704 340.352 249.472Z" fill="url(#paint38_linear_38_5680)"/>
<path d="M306.644 29.3442C306.671 14.6178 286.179 2.6408 260.873 2.59292C235.567 2.54503 215.03 14.4443 215.003 29.1707C214.981 41.028 228.264 51.1009 246.649 54.6016C249.801 64.3078 250.965 67.3226 256.982 73.1409C265.315 81.1996 268.422 83.4996 268.422 83.4996C268.422 83.4996 264.205 66.709 268.692 55.5393C290.229 53.3976 306.62 42.4995 306.644 29.3442Z" fill="url(#paint39_linear_38_5680)"/>
<path d="M302.763 26.7514C302.79 12.025 282.297 0.0480299 256.991 0.000144023C231.685 -0.0477418 211.149 11.8516 211.122 26.578C211.1 38.4352 224.382 48.5081 242.767 52.0088C245.919 61.715 247.084 64.7298 253.1 70.5482C261.433 78.6068 264.54 80.9069 264.54 80.9069C264.54 80.9069 260.324 64.1163 264.81 52.9466C286.347 50.8048 302.739 39.9067 302.763 26.7514Z" fill="url(#paint40_linear_38_5680)"/>
<path d="M245.716 28.0501C247.434 26.8801 247.891 24.5194 246.737 22.7774C245.584 21.0355 243.256 20.5718 241.538 21.7418C239.821 22.9118 239.364 25.2725 240.517 27.0145C241.671 28.7565 243.999 29.2201 245.716 28.0501Z" fill="white"/>
<path d="M256.38 29.539C258.43 29.2536 259.863 27.3369 259.582 25.2579C259.3 23.179 257.41 21.7251 255.361 22.0105C253.311 22.296 251.877 24.2127 252.159 26.2916C252.44 28.3705 254.33 29.8244 256.38 29.539Z" fill="white"/>
<path d="M269.626 30.1305C271.519 29.2831 272.376 27.0399 271.541 25.1201C270.705 23.2004 268.493 22.3311 266.6 23.1785C264.708 24.0259 263.85 26.2691 264.686 28.1889C265.522 30.1086 267.733 30.9779 269.626 30.1305Z" fill="white"/>
<path d="M462.677 199.09L469.367 212.839C469.5 213.112 469.696 213.347 469.938 213.525C470.18 213.704 470.461 213.82 470.757 213.864L483.408 214.494C484.922 214.718 487.837 218.179 486.741 219.262L475.916 229.964C475.701 230.176 475.541 230.438 475.448 230.726C475.356 231.015 475.334 231.322 475.385 231.622L477.94 246.733C477.998 247.078 477.961 247.432 477.831 247.755C477.701 248.079 477.485 248.359 477.206 248.565C476.927 248.77 476.597 248.892 476.254 248.917C475.91 248.943 475.567 248.87 475.262 248.707L461.88 241.572C461.616 241.431 461.321 241.357 461.021 241.357C460.722 241.357 460.427 241.431 460.162 241.572L446.781 248.707C445.427 249.429 440.789 247.383 441.047 245.853L446.658 231.622C446.709 231.322 446.687 231.015 446.594 230.726C446.502 230.438 446.342 230.176 446.127 229.964L435.302 219.262C435.055 219.018 434.881 218.709 434.798 218.37C434.715 218.031 434.728 217.675 434.834 217.343C434.941 217.01 435.137 216.715 435.4 216.49C435.664 216.265 435.984 216.119 436.325 216.068L451.285 213.864C451.582 213.82 451.863 213.704 452.105 213.525C452.347 213.347 452.543 213.112 452.675 212.839L457.034 196.289C457.711 194.897 462 197.698 462.677 199.09Z" fill="url(#paint41_linear_38_5680)"/>
<path d="M459.499 197.145L466.189 210.895C466.322 211.167 466.518 211.402 466.76 211.581C467.002 211.759 467.283 211.875 467.579 211.919L482.54 214.124C482.881 214.174 483.201 214.32 483.465 214.545C483.728 214.77 483.924 215.066 484.03 215.398C484.137 215.73 484.149 216.086 484.067 216.425C483.984 216.764 483.81 217.073 483.563 217.317L472.738 228.02C472.523 228.231 472.363 228.493 472.27 228.782C472.178 229.07 472.156 229.378 472.207 229.677L474.762 244.789C474.82 245.133 474.783 245.487 474.653 245.811C474.523 246.134 474.306 246.415 474.028 246.62C473.749 246.825 473.419 246.947 473.076 246.973C472.732 246.998 472.389 246.925 472.084 246.762L458.703 239.628C458.438 239.486 458.143 239.412 457.843 239.412C457.544 239.412 457.249 239.486 456.984 239.628L443.603 246.762C443.298 246.925 442.955 246.998 442.611 246.973C442.267 246.947 441.938 246.825 441.659 246.62C441.38 246.415 441.164 246.134 441.034 245.811C440.904 245.487 440.866 245.133 440.925 244.789L443.48 229.677C443.531 229.378 443.509 229.07 443.416 228.782C443.324 228.493 443.164 228.231 442.949 228.02L432.124 217.317C431.877 217.073 431.703 216.764 431.62 216.425C431.537 216.086 431.55 215.73 431.656 215.398C431.763 215.066 431.959 214.77 432.222 214.545C432.486 214.32 432.806 214.174 433.147 214.124L448.107 211.919C448.404 211.875 448.685 211.759 448.927 211.581C449.169 211.402 449.365 211.167 449.497 210.895L456.188 197.145C456.34 196.832 456.576 196.568 456.869 196.384C457.161 196.199 457.499 196.102 457.843 196.102C458.188 196.102 458.525 196.199 458.818 196.384C459.111 196.568 459.346 196.832 459.499 197.145Z" fill="url(#paint42_linear_38_5680)"/>
<defs>
<linearGradient id="paint0_linear_38_5680" x1="129.82" y1="182.562" x2="124.743" y2="97.3175" gradientUnits="userSpaceOnUse">
<stop stop-color="#C8C8C8"/>
<stop offset="1" stop-color="#D5D5D5"/>
</linearGradient>
<linearGradient id="paint1_linear_38_5680" x1="88.7568" y1="137.396" x2="218.345" y2="128.503" gradientUnits="userSpaceOnUse">
<stop stop-color="#DDDDDD"/>
<stop offset="0.70699" stop-color="#EFEFEF"/>
<stop offset="1" stop-color="#F6F6F6"/>
</linearGradient>
<linearGradient id="paint2_linear_38_5680" x1="84.1938" y1="181.82" x2="82.8359" y2="159.02" gradientUnits="userSpaceOnUse">
<stop stop-color="#C8C8C8"/>
<stop offset="1" stop-color="#D5D5D5"/>
</linearGradient>
<linearGradient id="paint3_linear_38_5680" x1="103.817" y1="99.7645" x2="102.498" y2="77.6237" gradientUnits="userSpaceOnUse">
<stop stop-color="#DD2F2F"/>
<stop offset="0.85484" stop-color="#FF6757"/>
</linearGradient>
<linearGradient id="paint4_linear_38_5680" x1="151.547" y1="95.2326" x2="102.527" y2="91.5407" gradientUnits="userSpaceOnUse">
<stop stop-color="#B92222"/>
<stop offset="0.24731" stop-color="#DD2F2F"/>
<stop offset="0.85484" stop-color="#FF6757"/>
</linearGradient>
<linearGradient id="paint5_linear_38_5680" x1="84.2684" y1="111.176" x2="140.265" y2="107.334" gradientUnits="userSpaceOnUse">
<stop stop-color="#B92222"/>
<stop offset="1" stop-color="#931111"/>
</linearGradient>
<linearGradient id="paint6_linear_38_5680" x1="131.78" y1="175.512" x2="82.5458" y2="171.804" gradientUnits="userSpaceOnUse">
<stop stop-color="#984ED6"/>
<stop offset="1" stop-color="#0BA2B3"/>
</linearGradient>
<linearGradient id="paint7_linear_38_5680" x1="64.3344" y1="191.43" x2="120.331" y2="187.587" gradientUnits="userSpaceOnUse">
<stop stop-color="#984ED6"/>
<stop offset="1" stop-color="#0BA2B3"/>
</linearGradient>
<linearGradient id="paint8_linear_38_5680" x1="268.173" y1="140.263" x2="359.924" y2="225.484" gradientUnits="userSpaceOnUse">
<stop stop-color="#FFD2A1"/>
<stop offset="1" stop-color="#D8952A"/>
</linearGradient>
<linearGradient id="paint9_linear_38_5680" x1="290.085" y1="169.775" x2="309.751" y2="80.9269" gradientUnits="userSpaceOnUse">
<stop stop-color="#FFD2A1"/>
<stop offset="1" stop-color="#D8952A"/>
</linearGradient>
<linearGradient id="paint10_linear_38_5680" x1="253.421" y1="166.035" x2="373.898" y2="189.882" gradientUnits="userSpaceOnUse">
<stop stop-color="#FFD2A1"/>
<stop offset="1" stop-color="#D8952A"/>
</linearGradient>
<linearGradient id="paint11_linear_38_5680" x1="285.884" y1="172.482" x2="327.805" y2="42.5775" gradientUnits="userSpaceOnUse">
<stop stop-color="#EFEFEF"/>
<stop offset="1" stop-color="#F6F6F6"/>
</linearGradient>
<linearGradient id="paint12_linear_38_5680" x1="124.172" y1="266.826" x2="141.187" y2="298.703" gradientUnits="userSpaceOnUse">
<stop stop-color="#C8C8C8"/>
<stop offset="0.70699" stop-color="#EFEFEF"/>
<stop offset="1" stop-color="#F6F6F6"/>
</linearGradient>
<linearGradient id="paint13_linear_38_5680" x1="117.304" y1="291.21" x2="133.577" y2="240.784" gradientUnits="userSpaceOnUse">
<stop stop-color="#C8C8C8"/>
<stop offset="0.70699" stop-color="#EFEFEF"/>
<stop offset="1" stop-color="#F6F6F6"/>
</linearGradient>
<linearGradient id="paint14_linear_38_5680" x1="146.298" y1="259.494" x2="146.298" y2="286.504" gradientUnits="userSpaceOnUse">
<stop stop-color="#C8C8C8"/>
<stop offset="0.70699" stop-color="#EFEFEF"/>
<stop offset="1" stop-color="#F6F6F6"/>
</linearGradient>
<linearGradient id="paint15_linear_38_5680" x1="302.229" y1="121.701" x2="269.958" y2="201.689" gradientUnits="userSpaceOnUse">
<stop stop-color="#FFD2A1"/>
<stop offset="1" stop-color="#D8952A"/>
</linearGradient>
<linearGradient id="paint16_linear_38_5680" x1="257.944" y1="233.865" x2="283.638" y2="155.859" gradientUnits="userSpaceOnUse">
<stop stop-color="#FFD2A1"/>
<stop offset="1" stop-color="#D8952A"/>
</linearGradient>
<linearGradient id="paint17_linear_38_5680" x1="97.1176" y1="54.2009" x2="11.9785" y2="41.5234" gradientUnits="userSpaceOnUse">
<stop stop-color="#FF9A21"/>
<stop offset="1" stop-color="#FFC81A"/>
</linearGradient>
<linearGradient id="paint18_linear_38_5680" x1="64.2627" y1="173.004" x2="-17.3673" y2="200.636" gradientUnits="userSpaceOnUse">
<stop stop-color="#FF9A21"/>
<stop offset="1" stop-color="#FFC81A"/>
</linearGradient>
<linearGradient id="paint19_linear_38_5680" x1="447.715" y1="61.8342" x2="414.563" y2="40.0015" gradientUnits="userSpaceOnUse">
<stop stop-color="#984ED6"/>
<stop offset="1" stop-color="#0BA2B3"/>
</linearGradient>
<linearGradient id="paint20_linear_38_5680" x1="424.261" y1="49.8166" x2="429.897" y2="55.0046" gradientUnits="userSpaceOnUse">
<stop stop-color="#E08282"/>
<stop offset="1" stop-color="#FFC0C0"/>
</linearGradient>
<linearGradient id="paint21_linear_38_5680" x1="422.015" y1="36.8391" x2="431.919" y2="45.9561" gradientUnits="userSpaceOnUse">
<stop stop-color="#E08282"/>
<stop offset="1" stop-color="#FFC0C0"/>
</linearGradient>
<linearGradient id="paint22_linear_38_5680" x1="422.673" y1="31.2607" x2="431.404" y2="40.613" gradientUnits="userSpaceOnUse">
<stop stop-color="#303030"/>
<stop offset="1" stop-color="#727272"/>
</linearGradient>
<linearGradient id="paint23_linear_38_5680" x1="408.227" y1="62.6119" x2="445.915" y2="62.6119" gradientUnits="userSpaceOnUse">
<stop stop-color="#B92222"/>
<stop offset="0.24731" stop-color="#DD2F2F"/>
<stop offset="0.85484" stop-color="#FF6757"/>
</linearGradient>
<linearGradient id="paint24_linear_38_5680" x1="420.268" y1="55.8055" x2="425.389" y2="54.3186" gradientUnits="userSpaceOnUse">
<stop stop-color="#EBEBEB"/>
<stop offset="1" stop-color="white"/>
</linearGradient>
<linearGradient id="paint25_linear_38_5680" x1="428.66" y1="55.9203" x2="434.683" y2="54.1717" gradientUnits="userSpaceOnUse">
<stop stop-color="#EBEBEB"/>
<stop offset="1" stop-color="white"/>
</linearGradient>
<linearGradient id="paint26_linear_38_5680" x1="489.417" y1="146.06" x2="445.148" y2="116.906" gradientUnits="userSpaceOnUse">
<stop stop-color="#B92222"/>
<stop offset="0.24731" stop-color="#DD2F2F"/>
<stop offset="0.85484" stop-color="#FF6757"/>
</linearGradient>
<linearGradient id="paint27_linear_38_5680" x1="458.1" y1="130.013" x2="465.625" y2="136.941" gradientUnits="userSpaceOnUse">
<stop stop-color="#E08282"/>
<stop offset="1" stop-color="#FFC0C0"/>
</linearGradient>
<linearGradient id="paint28_linear_38_5680" x1="455.1" y1="112.685" x2="468.325" y2="124.859" gradientUnits="userSpaceOnUse">
<stop stop-color="#E08282"/>
<stop offset="1" stop-color="#FFC0C0"/>
</linearGradient>
<linearGradient id="paint29_linear_38_5680" x1="455.673" y1="104.899" x2="467.569" y2="117.64" gradientUnits="userSpaceOnUse">
<stop stop-color="#303030"/>
<stop offset="1" stop-color="#727272"/>
</linearGradient>
<linearGradient id="paint30_linear_38_5680" x1="436.686" y1="147.099" x2="487.013" y2="147.099" gradientUnits="userSpaceOnUse">
<stop stop-color="#984ED6"/>
<stop offset="1" stop-color="#0BA2B3"/>
</linearGradient>
<linearGradient id="paint31_linear_38_5680" x1="452.766" y1="138.01" x2="459.604" y2="136.025" gradientUnits="userSpaceOnUse">
<stop stop-color="#EBEBEB"/>
<stop offset="1" stop-color="white"/>
</linearGradient>
<linearGradient id="paint32_linear_38_5680" x1="463.973" y1="138.163" x2="472.015" y2="135.828" gradientUnits="userSpaceOnUse">
<stop stop-color="#EBEBEB"/>
<stop offset="1" stop-color="white"/>
</linearGradient>
<linearGradient id="paint33_linear_38_5680" x1="396.933" y1="185.078" x2="313.57" y2="237.509" gradientUnits="userSpaceOnUse">
<stop stop-color="#984ED6"/>
<stop offset="1" stop-color="#0BA2B3"/>
</linearGradient>
<linearGradient id="paint34_linear_38_5680" x1="403.727" y1="220.26" x2="354.447" y2="251.255" gradientUnits="userSpaceOnUse">
<stop stop-color="#FF9A21"/>
<stop offset="1" stop-color="#9E510B"/>
</linearGradient>
<linearGradient id="paint35_linear_38_5680" x1="351.445" y1="245.869" x2="320.934" y2="239.676" gradientUnits="userSpaceOnUse">
<stop stop-color="#303030"/>
<stop offset="1" stop-color="#727272"/>
</linearGradient>
<linearGradient id="paint36_linear_38_5680" x1="309.357" y1="189.261" x2="396.755" y2="227.825" gradientUnits="userSpaceOnUse">
<stop stop-color="#984ED6"/>
<stop offset="1" stop-color="#0BA2B3"/>
</linearGradient>
<linearGradient id="paint37_linear_38_5680" x1="353.421" y1="239.144" x2="402.97" y2="219.637" gradientUnits="userSpaceOnUse">
<stop stop-color="#FF9A21"/>
<stop offset="1" stop-color="#FFC81A"/>
</linearGradient>
<linearGradient id="paint38_linear_38_5680" x1="324.641" y1="247.195" x2="357.206" y2="234.375" gradientUnits="userSpaceOnUse">
<stop stop-color="#303030"/>
<stop offset="1" stop-color="#727272"/>
</linearGradient>
<linearGradient id="paint39_linear_38_5680" x1="295.625" y1="0.637139" x2="245.423" y2="47.7128" gradientUnits="userSpaceOnUse">
<stop stop-color="#B92222"/>
<stop offset="1" stop-color="#DD2F2F"/>
</linearGradient>
<linearGradient id="paint40_linear_38_5680" x1="246.447" y1="61.8834" x2="264.002" y2="4.6128" gradientUnits="userSpaceOnUse">
<stop stop-color="#B92222"/>
<stop offset="0.24731" stop-color="#DD2F2F"/>
<stop offset="0.85484" stop-color="#FF6757"/>
</linearGradient>
<linearGradient id="paint41_linear_38_5680" x1="449.041" y1="236.422" x2="476.419" y2="215.757" gradientUnits="userSpaceOnUse">
<stop stop-color="#FFD2A1"/>
<stop offset="1" stop-color="#D8952A"/>
</linearGradient>
<linearGradient id="paint42_linear_38_5680" x1="489.159" y1="217.295" x2="442.968" y2="225.318" gradientUnits="userSpaceOnUse">
<stop stop-color="#FFD2A1"/>
<stop offset="1" stop-color="#D8952A"/>
</linearGradient>
</defs>
</svg>
